999
dxfrw 0.6.3
  0
SECTION
  2
HEADER
  9
$ACADVER
  1
AC1021
  9
$DWGCODEPAGE
  3
ANSI_1252
  9
$INSBASE
 10
0
 20
0
 30
0
  9
$EXTMIN
 10
16.77240187776204
 20
10.89088192826394
 30
0
  9
$EXTMAX
 10
73.27907431085664
 20
110.5525727127703
 30
0
  9
$LIMMIN
 10
0
 20
0
  9
$LIMMAX
 10
420
 20
297
  9
$ORTHOMODE
 70
    0
  9
$REGENMODE
 70
    1
  9
$FILLMODE
 70
    1
  9
$QTEXTMODE
 70
    0
  9
$MIRRTEXT
 70
    0
  9
$LTSCALE
 40
1
  9
$ATTMODE
 70
    0
  9
$TEXTSIZE
 40
2.5
  9
$TRACEWID
 40
15.68
  9
$TEXTSTYLE
  7
STANDARD
  9
$CLAYER
  8
2
  9
$CELTYPE
  6
BYLAYER
  9
$CECOLOR
 62
  256
  9
$CELTSCALE
 40
1
  9
$DISPSILH
 70
    0
  9
$DIMSCALE
 40
2.5
  9
$DIMASZ
 40
2.5
  9
$DIMEXO
 40
0.625
  9
$DIMDLI
 40
3.75
  9
$DIMRND
 40
0
  9
$DIMDLE
 40
0
  9
$DIMEXE
 40
1.25
  9
$DIMTP
 40
0
  9
$DIMTM
 40
0
  9
$DIMTXT
 40
2.5
  9
$DIMCEN
 40
2.5
  9
$DIMTSZ
 40
0
  9
$DIMTOL
 70
    0
  9
$DIMLIM
 70
    0
  9
$DIMTIH
 70
    0
  9
$DIMTOH
 70
    0
  9
$DIMSE1
 70
    0
  9
$DIMSE2
 70
    0
  9
$DIMTAD
 70
    1
  9
$DIMZIN
 70
    8
  9
$DIMBLK
  1

  9
$DIMASO
 70
    1
  9
$DIMSHO
 70
    1
  9
$DIMPOST
  1

  9
$DIMAPOST
  1

  9
$DIMALT
 70
    0
  9
$DIMALTD
 70
    3
  9
$DIMALTF
 40
0.03937
  9
$DIMLFAC
 40
1
  9
$DIMTOFL
 70
    1
  9
$DIMTVP
 40
0
  9
$DIMTIX
 70
    0
  9
$DIMSOXD
 70
    0
  9
$DIMSAH
 70
    0
  9
$DIMBLK1
  1

  9
$DIMBLK2
  1

  9
$DIMSTYLE
  2
Standard
  9
$DIMCLRD
 70
    0
  9
$DIMCLRE
 70
    0
  9
$DIMCLRT
 70
    0
  9
$DIMTFAC
 40
1
  9
$DIMGAP
 40
0.625
  9
$DIMJUST
 70
    0
  9
$DIMSD1
 70
    0
  9
$DIMSD2
 70
    0
  9
$DIMTOLJ
 70
    0
  9
$DIMTZIN
 70
    8
  9
$DIMALTZ
 70
    0
  9
$DIMALTTZ
 70
    0
  9
$DIMUPT
 70
    0
  9
$DIMDEC
 70
    4
  9
$DIMTDEC
 70
    2
  9
$DIMALTU
 70
    2
  9
$DIMALTTD
 70
    3
  9
$DIMTXSTY
  7
STANDARD
  9
$DIMAUNIT
 70
    0
  9
$DIMADEC
 70
    0
  9
$DIMALTRND
 40
0
  9
$DIMAZIN
 70
    0
  9
$DIMDSEP
 70
   44
  9
$DIMATFIT
 70
    3
  9
$DIMFRAC
 70
    0
  9
$DIMLDRBLK
  1
STANDARD
  9
$DIMLUNIT
 70
    2
  9
$DIMLWD
 70
   -2
  9
$DIMLWE
 70
   -2
  9
$DIMTMOVE
 70
    0
  9
$DIMFXL
 40
1
  9
$DIMFXLON
 70
    0
  9
$DIMJOGANG
 40
0.7854
  9
$DIMTFILL
 70
    0
  9
$DIMTFILLCLR
 70
    0
  9
$DIMARCSYM
 70
    0
  9
$DIMLTYPE
  6

  9
$DIMLTEX1
  6

  9
$DIMLTEX2
  6

  9
$LUNITS
 70
    2
  9
$LUPREC
 70
    4
  9
$SKETCHINC
 40
1
  9
$FILLETRAD
 40
0
  9
$AUNITS
 70
    0
  9
$AUPREC
 70
    2
  9
$MENU
  1
.
  9
$ELEVATION
 40
0
  9
$PELEVATION
 40
0
  9
$THICKNESS
 40
0
  9
$LIMCHECK
 70
    0
  9
$CHAMFERA
 40
0
  9
$CHAMFERB
 40
0
  9
$CHAMFERC
 40
0
  9
$CHAMFERD
 40
0
  9
$SKPOLY
 70
    0
  9
$USRTIMER
 70
    1
  9
$ANGBASE
 50
0
  9
$ANGDIR
 70
    0
  9
$PDMODE
 70
   34
  9
$PDSIZE
 40
0
  9
$PLINEWID
 40
0
  9
$SPLFRAME
 70
    0
  9
$SPLINETYPE
 70
    2
  9
$SPLINESEGS
 70
    8
  9
$HANDSEED
  5
20000
  9
$SURFTAB1
 70
    6
  9
$SURFTAB2
 70
    6
  9
$SURFTYPE
 70
    6
  9
$SURFU
 70
    6
  9
$SURFV
 70
    6
  9
$UCSBASE
  2

  9
$UCSNAME
  2

  9
$UCSORG
 10
0
 20
0
 30
0
  9
$UCSXDIR
 10
1
 20
0
 30
0
  9
$UCSYDIR
 10
0
 20
1
 30
0
  9
$UCSORTHOREF
  2

  9
$UCSORTHOVIEW
 70
    0
  9
$UCSORGTOP
 10
0
 20
0
 30
0
  9
$UCSORGBOTTOM
 10
0
 20
0
 30
0
  9
$UCSORGLEFT
 10
0
 20
0
 30
0
  9
$UCSORGRIGHT
 10
0
 20
0
 30
0
  9
$UCSORGFRONT
 10
0
 20
0
 30
0
  9
$UCSORGBACK
 10
0
 20
0
 30
0
  9
$PUCSBASE
  2

  9
$PUCSNAME
  2

  9
$PUCSORG
 10
0
 20
0
 30
0
  9
$PUCSXDIR
 10
1
 20
0
 30
0
  9
$PUCSYDIR
 10
0
 20
1
 30
0
  9
$PUCSORTHOREF
  2

  9
$PUCSORTHOVIEW
 70
    0
  9
$PUCSORGTOP
 10
0
 20
0
 30
0
  9
$PUCSORGBOTTOM
 10
0
 20
0
 30
0
  9
$PUCSORGLEFT
 10
0
 20
0
 30
0
  9
$PUCSORGRIGHT
 10
0
 20
0
 30
0
  9
$PUCSORGFRONT
 10
0
 20
0
 30
0
  9
$PUCSORGBACK
 10
0
 20
0
 30
0
  9
$USERI1
 70
    0
  9
$USERI2
 70
    0
  9
$USERI3
 70
    0
  9
$USERI4
 70
    0
  9
$USERI5
 70
    0
  9
$USERR1
 40
0
  9
$USERR2
 40
0
  9
$USERR3
 40
0
  9
$USERR4
 40
0
  9
$USERR5
 40
0
  9
$WORLDVIEW
 70
    1
  9
$SHADEDGE
 70
    3
  9
$SHADEDIF
 70
   70
  9
$TILEMODE
 70
    1
  9
$MAXACTVP
 70
   64
  9
$PINSBASE
 10
0
 20
0
 30
0
  9
$PLIMCHECK
 70
    0
  9
$PEXTMIN
 10
0
 20
0
 30
0
  9
$PEXTMAX
 10
0
 20
0
 30
0
  9
$GRIDMODE
 70
    0
  9
$SNAPSTYLE
 70
    0
  9
$PLIMMIN
 10
0
 20
0
  9
$PLIMMAX
 10
210
 20
297
  9
$UNITMODE
 70
    0
  9
$VISRETAIN
 70
    1
  9
$PLINEGEN
 70
    0
  9
$PSLTSCALE
 70
    1
  9
$TREEDEPTH
 70
 3020
  9
$CMLSTYLE
  2
Standard
  9
$CMLJUST
 70
    0
  9
$CMLSCALE
 40
20
  9
$PROXYGRAPHICS
 70
    1
  9
$MEASUREMENT
 70
    1
  9
$CELWEIGHT
370
   -1
  9
$ENDCAPS
280
    0
  9
$JOINSTYLE
280
    0
  9
$LWDISPLAY
290
    0
  9
$INSUNITS
 70
    4
  9
$HYPERLINKBASE
  1

  9
$STYLESHEET
  1

  9
$XEDIT
290
    1
  9
$CEPSNTYPE
380
    0
  9
$PSTYLEMODE
290
    1
  9
$EXTNAMES
290
    1
  9
$PSVPSCALE
 40
1
  9
$OLESTARTUP
290
    0
  9
$SORTENTS
280
  127
  9
$INDEXCTL
280
    0
  9
$HIDETEXT
280
    1
  9
$XCLIPFRAME
290
    0
  9
$HALOGAP
280
    0
  9
$OBSCOLOR
 70
  257
  9
$OBSLTYPE
280
    0
  9
$INTERSECTIONDISPLAY
280
    0
  9
$INTERSECTIONCOLOR
 70
  257
  9
$DIMASSOC
280
    1
  9
$PROJECTNAME
  1

  9
$CAMERADISPLAY
290
    0
  9
$LENSLENGTH
 40
50
  9
$CAMERAHEIGHT
 40
0
  9
$STEPSPERSEC
 40
2
  9
$STEPSIZE
 40
50
  9
$3DDWFPREC
 40
2
  9
$PSOLWIDTH
 40
5
  9
$PSOLHEIGHT
 40
80
  9
$LOFTANG1
 40
1.570796326794897
  9
$LOFTANG2
 40
1.570796326794897
  9
$LOFTMAG1
 40
0
  9
$LOFTMAG2
 40
0
  9
$LOFTPARAM
 70
    7
  9
$LOFTNORMALS
280
    1
  9
$LATITUDE
 40
1
  9
$LONGITUDE
 40
1
  9
$NORTHDIRECTION
 40
0
  9
$TIMEZONE
 70
-8000
  9
$LIGHTGLYPHDISPLAY
280
    1
  9
$TILEMODELIGHTSYNCH
280
    1
  9
$SOLIDHIST
280
    1
  9
$SHOWHIST
280
    1
  9
$DWFFRAME
280
    2
  9
$DGNFRAME
280
    0
  9
$REALWORLDSCALE
290
    1
  9
$INTERFERECOLOR
 62
    1
  9
$CSHADOW
280
    0
  9
$SHADOWPLANELOCATION
 40
0
  0
ENDSEC
  0
SECTION
  2
CLASSES
  0
ENDSEC
  0
SECTION
  2
TABLES
  0
TABLE
  2
VPORT
  5
8
330
0
100
AcDbSymbolTable
 70
    1
  0
VPORT
  5
31
330
2
100
AcDbSymbolTableRecord
100
AcDbViewportTableRecord
  2
*ACTIVE
 70
    0
 10
0
 20
0
 11
1
 21
1
 12
78.3566808463551
 22
55.97927107910224
 13
0
 23
0
 14
10
 24
10
 15
10
 25
10
 16
0
 26
0
 36
1
 17
0
 27
0
 37
0
 40
102.5214236621106
 41
2.178521617852162
 42
50
 43
0
 44
0
 50
0
 51
0
 71
    0
 72
  100
 73
    1
 74
    3
 75
    0
 76
    0
 77
    0
 78
    0
281
    0
 65
    1
110
0
120
0
130
0
111
1
121
0
131
0
112
0
122
1
132
0
 79
    0
146
0
348
10020
 60
    7
 61
    5
292
1
282
    1
141
0
142
0
 63
  250
421
3358443
  0
ENDTAB
  0
TABLE
  2
LTYPE
  5
5
330
0
100
AcDbSymbolTable
 70
    4
  0
LTYPE
  5
14
330
5
100
AcDbSymbolTableRecord
100
AcDbLinetypeTableRecord
  2
ByBlock
 70
    0
  3

 72
   65
 73
    0
 40
0
  0
LTYPE
  5
15
330
5
100
AcDbSymbolTableRecord
100
AcDbLinetypeTableRecord
  2
ByLayer
 70
    0
  3

 72
   65
 73
    0
 40
0
  0
LTYPE
  5
16
330
5
100
AcDbSymbolTableRecord
100
AcDbLinetypeTableRecord
  2
Continuous
 70
    0
  3
Solid line
 72
   65
 73
    0
 40
0
  0
LTYPE
  5
32
330
5
100
AcDbSymbolTableRecord
100
AcDbLinetypeTableRecord
  2
DOT
 70
    0
  3
Dot . . . . . . . . . . . . . . . . . . . . . .
 72
   65
 73
    2
 40
6.35
 49
0
 74
    0
 49
-6.35
 74
    0
  0
LTYPE
  5
33
330
5
100
AcDbSymbolTableRecord
100
AcDbLinetypeTableRecord
  2
DOTTINY
 70
    0
  3
Dot (.15x) .....................................
 72
   65
 73
    2
 40
0.9525
 49
0
 74
    0
 49
-0.9525
 74
    0
  0
LTYPE
  5
34
330
5
100
AcDbSymbolTableRecord
100
AcDbLinetypeTableRecord
  2
DOT2
 70
    0
  3
Dot (.5x) .....................................
 72
   65
 73
    2
 40
3.175
 49
0
 74
    0
 49
-3.175
 74
    0
  0
LTYPE
  5
35
330
5
100
AcDbSymbolTableRecord
100
AcDbLinetypeTableRecord
  2
DOTX2
 70
    0
  3
Dot (2x) .  .  .  .  .  .  .  .  .  .  .  .  .
 72
   65
 73
    2
 40
12.7
 49
0
 74
    0
 49
-12.7
 74
    0
  0
LTYPE
  5
36
330
5
100
AcDbSymbolTableRecord
100
AcDbLinetypeTableRecord
  2
DASHED
 70
    0
  3
Dashed _ _ _ _ _ _ _ _ _ _ _ _ _ _ _ _ _
 72
   65
 73
    2
 40
19.05
 49
12.7
 74
    0
 49
-6.35
 74
    0
  0
LTYPE
  5
37
330
5
100
AcDbSymbolTableRecord
100
AcDbLinetypeTableRecord
  2
DASHEDTINY
 70
    0
  3
Dashed (.15x) _ _ _ _ _ _ _ _ _ _ _ _ _ _ _ _ _
 72
   65
 73
    2
 40
2.8575
 49
1.905
 74
    0
 49
-0.9525
 74
    0
  0
LTYPE
  5
38
330
5
100
AcDbSymbolTableRecord
100
AcDbLinetypeTableRecord
  2
DASHED2
 70
    0
  3
Dashed (.5x) _ _ _ _ _ _ _ _ _ _ _ _ _ _ _ _ _
 72
   65
 73
    2
 40
9.524999999999999
 49
6.35
 74
    0
 49
-3.175
 74
    0
  0
LTYPE
  5
39
330
5
100
AcDbSymbolTableRecord
100
AcDbLinetypeTableRecord
  2
DASHEDX2
 70
    0
  3
Dashed (2x) ____  ____  ____  ____  ____  ___
 72
   65
 73
    2
 40
38.09999999999999
 49
25.4
 74
    0
 49
-12.7
 74
    0
  0
LTYPE
  5
3A
330
5
100
AcDbSymbolTableRecord
100
AcDbLinetypeTableRecord
  2
DASHDOT
 70
    0
  3
Dash dot __ . __ . __ . __ . __ . __ . __ . __
 72
   65
 73
    4
 40
25.4
 49
12.7
 74
    0
 49
-6.35
 74
    0
 49
0
 74
    0
 49
-6.35
 74
    0
  0
LTYPE
  5
3B
330
5
100
AcDbSymbolTableRecord
100
AcDbLinetypeTableRecord
  2
DASHDOTTINY
 70
    0
  3
Dash dot (.15x) _._._._._._._._._._._._._._._.
 72
   65
 73
    4
 40
3.81
 49
1.905
 74
    0
 49
-0.9525
 74
    0
 49
0
 74
    0
 49
-0.9525
 74
    0
  0
LTYPE
  5
3C
330
5
100
AcDbSymbolTableRecord
100
AcDbLinetypeTableRecord
  2
DASHDOT2
 70
    0
  3
Dash dot (.5x) _._._._._._._._._._._._._._._.
 72
   65
 73
    4
 40
12.7
 49
6.35
 74
    0
 49
-3.175
 74
    0
 49
0
 74
    0
 49
-3.175
 74
    0
  0
LTYPE
  5
3D
330
5
100
AcDbSymbolTableRecord
100
AcDbLinetypeTableRecord
  2
DASHDOTX2
 70
    0
  3
Dash dot (2x) ____  .  ____  .  ____  .  ___
 72
   65
 73
    4
 40
50.8
 49
25.4
 74
    0
 49
-12.7
 74
    0
 49
0
 74
    0
 49
-12.7
 74
    0
  0
LTYPE
  5
3E
330
5
100
AcDbSymbolTableRecord
100
AcDbLinetypeTableRecord
  2
DIVIDE
 70
    0
  3
Divide ____ . . ____ . . ____ . . ____ . . ____
 72
   65
 73
    6
 40
31.75
 49
12.7
 74
    0
 49
-6.35
 74
    0
 49
0
 74
    0
 49
-6.35
 74
    0
 49
0
 74
    0
 49
-6.35
 74
    0
  0
LTYPE
  5
3F
330
5
100
AcDbSymbolTableRecord
100
AcDbLinetypeTableRecord
  2
DIVIDETINY
 70
    0
  3
Divide (.15x) __..__..__..__..__..__..__..__.._
 72
   65
 73
    6
 40
4.7625
 49
1.905
 74
    0
 49
-0.9525
 74
    0
 49
0
 74
    0
 49
-0.9525
 74
    0
 49
0
 74
    0
 49
-0.9525
 74
    0
  0
LTYPE
  5
40
330
5
100
AcDbSymbolTableRecord
100
AcDbLinetypeTableRecord
  2
DIVIDE2
 70
    0
  3
Divide (.5x) __..__..__..__..__..__..__..__.._
 72
   65
 73
    6
 40
15.875
 49
6.35
 74
    0
 49
-3.175
 74
    0
 49
0
 74
    0
 49
-3.175
 74
    0
 49
0
 74
    0
 49
-3.175
 74
    0
  0
LTYPE
  5
41
330
5
100
AcDbSymbolTableRecord
100
AcDbLinetypeTableRecord
  2
DIVIDEX2
 70
    0
  3
Divide (2x) ________  .  .  ________  .  .  _
 72
   65
 73
    6
 40
63.5
 49
25.4
 74
    0
 49
-12.7
 74
    0
 49
0
 74
    0
 49
-12.7
 74
    0
 49
0
 74
    0
 49
-12.7
 74
    0
  0
LTYPE
  5
42
330
5
100
AcDbSymbolTableRecord
100
AcDbLinetypeTableRecord
  2
BORDER
 70
    0
  3
Border __ __ . __ __ . __ __ . __ __ . __ __ .
 72
   65
 73
    6
 40
44.45
 49
12.7
 74
    0
 49
-6.35
 74
    0
 49
12.7
 74
    0
 49
-6.35
 74
    0
 49
0
 74
    0
 49
-6.35
 74
    0
  0
LTYPE
  5
43
330
5
100
AcDbSymbolTableRecord
100
AcDbLinetypeTableRecord
  2
BORDERTINY
 70
    0
  3
Border (.15x) __.__.__.__.__.__.__.__.__.__.__.
 72
   65
 73
    6
 40
6.6675
 49
1.905
 74
    0
 49
-0.9525
 74
    0
 49
1.905
 74
    0
 49
-0.9525
 74
    0
 49
0
 74
    0
 49
-0.9525
 74
    0
  0
LTYPE
  5
44
330
5
100
AcDbSymbolTableRecord
100
AcDbLinetypeTableRecord
  2
BORDER2
 70
    0
  3
Border (.5x) __.__.__.__.__.__.__.__.__.__.__.
 72
   65
 73
    6
 40
22.225
 49
6.35
 74
    0
 49
-3.175
 74
    0
 49
6.35
 74
    0
 49
-3.175
 74
    0
 49
0
 74
    0
 49
-3.175
 74
    0
  0
LTYPE
  5
45
330
5
100
AcDbSymbolTableRecord
100
AcDbLinetypeTableRecord
  2
BORDERX2
 70
    0
  3
Border (2x) ____  ____  .  ____  ____  .  ___
 72
   65
 73
    6
 40
88.89999999999999
 49
25.4
 74
    0
 49
-12.7
 74
    0
 49
25.4
 74
    0
 49
-12.7
 74
    0
 49
0
 74
    0
 49
-12.7
 74
    0
  0
LTYPE
  5
46
330
5
100
AcDbSymbolTableRecord
100
AcDbLinetypeTableRecord
  2
CENTER
 70
    0
  3
Center ____ _ ____ _ ____ _ ____ _ ____ _ ____
 72
   65
 73
    4
 40
50.8
 49
31.75
 74
    0
 49
-6.35
 74
    0
 49
6.35
 74
    0
 49
-6.35
 74
    0
  0
LTYPE
  5
47
330
5
100
AcDbSymbolTableRecord
100
AcDbLinetypeTableRecord
  2
CENTERTINY
 70
    0
  3
Center (.15x) ___ _ ___ _ ___ _ ___ _ ___ _ ___
 72
   65
 73
    4
 40
7.619999999999999
 49
4.7625
 74
    0
 49
-0.9525
 74
    0
 49
0.9525
 74
    0
 49
-0.9525
 74
    0
  0
LTYPE
  5
48
330
5
100
AcDbSymbolTableRecord
100
AcDbLinetypeTableRecord
  2
CENTER2
 70
    0
  3
Center (.5x) ___ _ ___ _ ___ _ ___ _ ___ _ ___
 72
   65
 73
    4
 40
28.575
 49
19.05
 74
    0
 49
-3.175
 74
    0
 49
3.175
 74
    0
 49
-3.175
 74
    0
  0
LTYPE
  5
49
330
5
100
AcDbSymbolTableRecord
100
AcDbLinetypeTableRecord
  2
CENTERX2
 70
    0
  3
Center (2x) ________  __  ________  __  _____
 72
   65
 73
    4
 40
101.6
 49
63.5
 74
    0
 49
-12.7
 74
    0
 49
12.7
 74
    0
 49
-12.7
 74
    0
  0
ENDTAB
  0
TABLE
  2
LAYER
  5
2
330
0
100
AcDbSymbolTable
 70
    1
  0
LAYER
  5
10
330
2
100
AcDbSymbolTableRecord
100
AcDbLayerTableRecord
  2
0
 70
    0
 62
    7
  6
CONTINUOUS
370
   -3
390
F
  0
LAYER
  5
4A
330
2
100
AcDbSymbolTableRecord
100
AcDbLayerTableRecord
  2
2
 70
    0
 62
    7
  6
CONTINUOUS
370
    0
390
F
  0
LAYER
  5
4B
330
2
100
AcDbSymbolTableRecord
100
AcDbLayerTableRecord
  2
height_-0.1
 70
    0
 62
    7
  6
CONTINUOUS
370
    0
390
F
  0
LAYER
  5
4C
330
2
100
AcDbSymbolTableRecord
100
AcDbLayerTableRecord
  2
height_-0.5
 70
    0
 62
    7
  6
CONTINUOUS
370
    0
390
F
  0
ENDTAB
  0
TABLE
  2
STYLE
  5
3
330
0
100
AcDbSymbolTable
 70
    3
  0
STYLE
  5
4D
330
2
100
AcDbSymbolTableRecord
100
AcDbTextStyleTableRecord
  2
Standard
 70
    0
 40
0
 41
1
 50
0
 71
    0
 42
1
  3
txt
  4

  0
ENDTAB
  0
TABLE
  2
VIEW
  5
6
330
0
100
AcDbSymbolTable
 70
    0
  0
ENDTAB
  0
TABLE
  2
UCS
  5
7
330
0
100
AcDbSymbolTable
 70
    0
  0
ENDTAB
  0
TABLE
  2
APPID
  5
9
330
0
100
AcDbSymbolTable
 70
    1
  0
APPID
  5
12
330
9
100
AcDbSymbolTableRecord
100
AcDbRegAppTableRecord
  2
ACAD
 70
    0
  0
APPID
  5
4E
330
9
100
AcDbSymbolTableRecord
100
AcDbRegAppTableRecord
  2
LibreCad
 70
    0
  0
ENDTAB
  0
TABLE
  2
DIMSTYLE
  5
A
330
0
100
AcDbSymbolTable
 70
    1
100
AcDbDimStyleTable
 71
    1
  0
DIMSTYLE
105
4F
330
A
100
AcDbSymbolTableRecord
100
AcDbDimStyleTableRecord
  2
Standard
 70
    0
 40
2.5
 41
2.5
 42
0.625
 43
0.38
 44
1.25
 45
0
 46
0
 47
0
 48
0
 49
1
140
2.5
141
0.09
142
0
143
25.4
144
1
145
0
146
1
147
0.625
148
0
 71
    0
 72
    0
 73
    0
 74
    1
 75
    0
 76
    0
 77
    0
 78
    8
 79
    0
170
    0
171
    2
172
    0
173
    0
174
    0
175
    0
176
    0
177
    0
178
    0
179
    0
271
    4
272
    4
273
    2
274
    2
275
    0
276
    0
277
    2
278
   44
279
    0
280
    0
281
    0
282
    0
283
    1
284
    0
285
    0
286
    0
288
    0
289
    3
340
STANDARD
341

371
   -2
372
   -2
  0
ENDTAB
  0
TABLE
  2
BLOCK_RECORD
  5
1
330
0
100
AcDbSymbolTable
 70
    2
  0
BLOCK_RECORD
  5
1F
330
1
100
AcDbSymbolTableRecord
100
AcDbBlockTableRecord
  2
*Model_Space
 70
    0
280
    1
281
    0
  0
BLOCK_RECORD
  5
1E
330
1
100
AcDbSymbolTableRecord
100
AcDbBlockTableRecord
  2
*Paper_Space
 70
    0
280
    1
281
    0
  0
ENDTAB
  0
ENDSEC
  0
SECTION
  2
BLOCKS
  0
BLOCK
  5
20
330
1F
100
AcDbEntity
  8
0
100
AcDbBlockBegin
  2
*Model_Space
 70
    0
 10
0
 20
0
 30
0
  3
*Model_Space
  1

  0
ENDBLK
  5
21
330
1F
100
AcDbEntity
  8
0
100
AcDbBlockEnd
  0
BLOCK
  5
1C
330
1B
100
AcDbEntity
  8
0
100
AcDbBlockBegin
  2
*Paper_Space
 70
    0
 10
0
 20
0
 30
0
  3
*Paper_Space
  1

  0
ENDBLK
  5
1D
330
1F
100
AcDbEntity
  8
0
100
AcDbBlockEnd
  0
ENDSEC
  0
SECTION
  2
ENTITIES
  0
LINE
  5
50
100
AcDbEntity
  8
0
  6
ByLayer
 62
  256
370
   -1
100
AcDbLine
 10
19.60626502152092
 20
108.1790269153521
 11
19.60626502152092
 21
110.1790269153521
  0
LINE
  5
51
100
AcDbEntity
  8
0
  6
ByLayer
 62
  256
370
   -1
100
AcDbLine
 10
19.60626502152092
 20
110.1790269153521
 11
20.27293168818759
 21
109.067915804241
  0
LINE
  5
52
100
AcDbEntity
  8
0
  6
ByLayer
 62
  256
370
   -1
100
AcDbLine
 10
20.27293168818759
 20
109.067915804241
 11
20.93959835485425
 21
110.1790269153521
  0
LINE
  5
53
100
AcDbEntity
  8
0
  6
ByLayer
 62
  256
370
   -1
100
AcDbLine
 10
20.93959835485425
 20
110.1790269153521
 11
20.93959835485425
 21
108.1790269153521
  0
LINE
  5
54
100
AcDbEntity
  8
0
  6
ByLayer
 62
  256
370
   -1
100
AcDbLine
 10
21.60626502152092
 20
108.1790269153521
 11
21.60626502152092
 21
110.1790269153521
  0
LINE
  5
55
100
AcDbEntity
  8
0
  6
ByLayer
 62
  256
370
   -1
100
AcDbLine
 10
22.27293168818759
 20
108.1790269153521
 11
22.27293168818759
 21
110.1790269153521
  0
LINE
  5
56
100
AcDbEntity
  8
0
  6
ByLayer
 62
  256
370
   -1
100
AcDbLine
 10
22.27293168818759
 20
110.1790269153521
 11
23.3840427992987
 21
108.1790269153521
  0
LINE
  5
57
100
AcDbEntity
  8
0
  6
ByLayer
 62
  256
370
   -1
100
AcDbLine
 10
23.3840427992987
 20
108.1790269153521
 11
23.3840427992987
 21
110.1790269153521
  0
LINE
  5
58
100
AcDbEntity
  8
0
  6
ByLayer
 62
  256
370
   -1
100
AcDbLine
 10
53.84047247568977
 20
46.71998668579655
 11
53.39602803124532
 21
46.71998668579655
  0
ARC
  5
59
100
AcDbEntity
  8
0
  6
ByLayer
 62
  256
370
   -1
100
AcDbCircle
 10
53.39603073408795
 20
47.16443383308362
 40
0.4444471472952897
100
AcDbArc
 50
180.0003484362002
 51
269.9996515637998
  0
LINE
  5
5A
100
AcDbEntity
  8
0
  6
ByLayer
 62
  256
370
   -1
100
AcDbLine
 10
52.95158358680088
 20
47.16443113024099
 11
52.95158358680088
 21
48.27554224135211
  0
ARC
  5
5B
100
AcDbEntity
  8
0
  6
ByLayer
 62
  256
370
   -1
100
AcDbCircle
 10
53.39603073408795
 20
48.27553953850948
 40
0.4444471472952897
100
AcDbArc
 50
90.00034843620023
 51
179.9996515637998
  0
LINE
  5
5C
100
AcDbEntity
  8
0
  6
ByLayer
 62
  256
370
   -1
100
AcDbLine
 10
53.39602803124532
 20
48.71998668579655
 11
53.84047247568977
 21
48.71998668579655
  0
LINE
  5
5D
100
AcDbEntity
  8
0
  6
ByLayer
 62
  256
370
   -1
100
AcDbLine
 10
22.01085020883162
 20
34.69220315638471
 11
21.12196131994273
 21
34.69220315638471
  0
LINE
  5
5E
100
AcDbEntity
  8
0
  6
ByLayer
 62
  256
370
   -1
100
AcDbLine
 10
21.12196131994273
 20
34.69220315638471
 11
21.12196131994273
 21
36.69220315638471
  0
LINE
  5
5F
100
AcDbEntity
  8
0
  6
ByLayer
 62
  256
370
   -1
100
AcDbLine
 10
21.12196131994273
 20
36.69220315638471
 11
22.01085020883162
 21
36.69220315638471
  0
LINE
  5
60
100
AcDbEntity
  8
0
  6
ByLayer
 62
  256
370
   -1
100
AcDbLine
 10
21.12196131994273
 20
35.80331426749583
 11
21.7886279866094
 21
35.80331426749583
  0
LINE
  5
61
100
AcDbEntity
  8
0
  6
ByLayer
 62
  256
370
   -1
100
AcDbLine
 10
36.91453888091844
 20
34.78999001434741
 11
36.91453888091844
 21
36.78999001434741
  0
LINE
  5
62
100
AcDbEntity
  8
0
  6
ByLayer
 62
  256
370
   -1
100
AcDbLine
 10
36.91453888091844
 20
36.78999001434741
 11
37.80342776980732
 21
36.78999001434741
  0
LINE
  5
63
100
AcDbEntity
  8
0
  6
ByLayer
 62
  256
370
   -1
100
AcDbLine
 10
36.91453888091844
 20
35.90110112545852
 11
37.80342776980732
 21
35.90110112545852
  0
LINE
  5
64
100
AcDbEntity
  8
0
  6
ByLayer
 62
  256
370
   -1
100
AcDbLine
 10
66.61240764418997
 20
83.44873053658611
 11
66.61240764418997
 21
85.44873053658611
  0
LINE
  5
65
100
AcDbEntity
  8
0
  6
ByLayer
 62
  256
370
   -1
100
AcDbLine
 10
66.61240764418997
 20
85.44873053658611
 11
67.72351875530109
 21
83.44873053658611
  0
LINE
  5
66
100
AcDbEntity
  8
0
  6
ByLayer
 62
  256
370
   -1
100
AcDbLine
 10
67.72351875530109
 20
83.44873053658611
 11
67.72351875530109
 21
85.44873053658611
  0
LINE
  5
67
100
AcDbEntity
  8
0
  6
ByLayer
 62
  256
370
   -1
100
AcDbLine
 10
68.57536319974552
 20
84.00428609214167
 11
69.53831875530108
 21
84.00428609214167
  0
LINE
  5
68
100
AcDbEntity
  8
0
  6
ByLayer
 62
  256
370
   -1
100
AcDbLine
 10
69.35314764418996
 20
84.55984164769723
 11
69.72351875530107
 21
83.44873053658611
  0
LINE
  5
69
100
AcDbEntity
  8
0
  6
ByLayer
 62
  256
370
   -1
100
AcDbLine
 10
68.39018542196774
 20
83.44873053658611
 11
68.76055653307886
 21
84.55984164769723
  0
LINE
  5
6A
100
AcDbEntity
  8
0
  6
ByLayer
 62
  256
370
   -1
100
AcDbLine
 10
68.83462986641219
 20
84.78206386991944
 11
69.05685208863441
 21
85.44873053658611
  0
LINE
  5
6B
100
AcDbEntity
  8
0
  6
ByLayer
 62
  256
370
   -1
100
AcDbLine
 10
69.05685208863441
 20
85.44873053658611
 11
69.27907431085663
 21
84.78206386991944
  0
LINE
  5
6C
100
AcDbEntity
  8
0
  6
ByLayer
 62
  256
370
   -1
100
AcDbLine
 10
70.39018542196774
 20
83.44873053658611
 11
70.39018542196774
 21
85.44873053658611
  0
LINE
  5
6D
100
AcDbEntity
  8
0
  6
ByLayer
 62
  256
370
   -1
100
AcDbLine
 10
70.39018542196774
 20
85.44873053658611
 11
71.50129653307886
 21
83.44873053658611
  0
LINE
  5
6E
100
AcDbEntity
  8
0
  6
ByLayer
 62
  256
370
   -1
100
AcDbLine
 10
71.50129653307886
 20
83.44873053658611
 11
71.50129653307886
 21
85.44873053658611
  0
ARC
  5
6F
100
AcDbEntity
  8
0
  6
ByLayer
 62
  256
370
   -1
100
AcDbCircle
 10
72.83462716356956
 20
83.89317768387318
 40
0.4444471472952897
100
AcDbArc
 50
270.0003484362002
 51
359.9996515637998
  0
LINE
  5
70
100
AcDbEntity
  8
0
  6
ByLayer
 62
  256
370
   -1
100
AcDbLine
 10
73.27907431085664
 20
83.89317498103055
 11
73.27907431085664
 21
85.00428609214167
  0
ARC
  5
71
100
AcDbEntity
  8
0
  6
ByLayer
 62
  256
370
   -1
100
AcDbCircle
 10
72.83462716356956
 20
85.00428338929905
 40
0.4444471472952897
100
AcDbArc
 50
0.0003484362002016709
 51
89.99965156379977
  0
LINE
  5
72
100
AcDbEntity
  8
0
  6
ByLayer
 62
  256
370
   -1
100
AcDbLine
 10
72.16796319974553
 20
85.44873053658611
 11
72.16796319974553
 21
83.44873053658611
  0
LINE
  5
73
100
AcDbEntity
  8
0
  6
ByLayer
 62
  256
370
   -1
100
AcDbLine
 10
72.39018542196776
 20
85.44873053658611
 11
72.16796319974553
 21
85.44873053658611
  0
LINE
  5
74
100
AcDbEntity
  8
0
  6
ByLayer
 62
  256
370
   -1
100
AcDbLine
 10
72.16796319974553
 20
83.44873053658611
 11
72.39018542196776
 21
83.44873053658611
  0
LINE
  5
75
100
AcDbEntity
  8
0
  6
ByLayer
 62
  256
370
   -1
100
AcDbLine
 10
29.070077135151
 20
95.87939592080463
 11
29.070077135151
 21
97.87939592080463
  0
LINE
  5
76
100
AcDbEntity
  8
0
  6
ByLayer
 62
  256
370
   -1
100
AcDbLine
 10
30.18118824626211
 20
95.87939592080463
 11
30.18118824626211
 21
97.87939592080463
  0
LINE
  5
77
100
AcDbEntity
  8
0
  6
ByLayer
 62
  256
370
   -1
100
AcDbLine
 10
29.070077135151
 20
96.99050703191574
 11
30.18118824626211
 21
96.99050703191574
  0
LINE
  5
78
100
AcDbEntity
  8
0
  6
ByLayer
 62
  256
370
   -1
100
AcDbLine
 10
31.73674380181767
 20
95.87939592080463
 11
30.84785491292878
 21
95.87939592080463
  0
LINE
  5
79
100
AcDbEntity
  8
0
  6
ByLayer
 62
  256
370
   -1
100
AcDbLine
 10
30.84785491292878
 20
95.87939592080463
 11
30.84785491292878
 21
97.87939592080463
  0
LINE
  5
7A
100
AcDbEntity
  8
0
  6
ByLayer
 62
  256
370
   -1
100
AcDbLine
 10
30.84785491292878
 20
97.87939592080463
 11
31.73674380181767
 21
97.87939592080463
  0
LINE
  5
7B
100
AcDbEntity
  8
0
  6
ByLayer
 62
  256
370
   -1
100
AcDbLine
 10
30.84785491292878
 20
96.99050703191574
 11
31.51452157959545
 21
96.99050703191574
  0
LINE
  5
7C
100
AcDbEntity
  8
0
  6
ByLayer
 62
  256
370
   -1
100
AcDbLine
 10
32.40341046848433
 20
95.87939592080463
 11
33.73674380181767
 21
97.87939592080463
  0
LINE
  5
7D
100
AcDbEntity
  8
0
  6
ByLayer
 62
  256
370
   -1
100
AcDbLine
 10
32.40341046848433
 20
97.87939592080463
 11
33.73674380181767
 21
95.87939592080463
  0
LINE
  5
7E
100
AcDbEntity
  8
0
  6
ByLayer
 62
  256
370
   -1
100
AcDbLine
 10
34.40341046848433
 20
95.87939592080463
 11
35.070077135151
 21
95.87939592080463
  0
ARC
  5
7F
100
AcDbEntity
  8
0
  6
ByLayer
 62
  256
370
   -1
100
AcDbCircle
 10
35.07007746718441
 20
96.32384003321566
 40
0.4444441124111536
100
AcDbArc
 50
269.999957195713
 51
4.280428697680878e-05
  0
LINE
  5
80
100
AcDbEntity
  8
0
  6
ByLayer
 62
  256
370
   -1
100
AcDbLine
 10
35.51452157959545
 20
96.32384036524907
 11
35.51452157959545
 21
97.43495147636018
  0
ARC
  5
81
100
AcDbEntity
  8
0
  6
ByLayer
 62
  256
370
   -1
100
AcDbCircle
 10
35.07007746718441
 20
97.43495180839359
 40
0.4444441124111536
100
AcDbArc
 50
359.999957195713
 51
90.00004280428698
  0
LINE
  5
82
100
AcDbEntity
  8
0
  6
ByLayer
 62
  256
370
   -1
100
AcDbLine
 10
35.070077135151
 20
97.87939592080463
 11
34.40341046848433
 21
97.87939592080463
  0
LINE
  5
83
100
AcDbEntity
  8
0
  6
ByLayer
 62
  256
370
   -1
100
AcDbLine
 10
34.40341046848433
 20
97.87939592080463
 11
34.40341046848433
 21
95.87939592080463
  0
LINE
  5
84
100
AcDbEntity
  8
0
  6
ByLayer
 62
  256
370
   -1
100
AcDbLine
 10
37.07007713515112
 20
95.87939592080463
 11
36.18118824626223
 21
95.87939592080463
  0
LINE
  5
85
100
AcDbEntity
  8
0
  6
ByLayer
 62
  256
370
   -1
100
AcDbLine
 10
36.18118824626223
 20
95.87939592080463
 11
36.18118824626223
 21
97.87939592080463
  0
LINE
  5
86
100
AcDbEntity
  8
0
  6
ByLayer
 62
  256
370
   -1
100
AcDbLine
 10
36.18118824626223
 20
97.87939592080463
 11
37.07007713515112
 21
97.87939592080463
  0
LINE
  5
87
100
AcDbEntity
  8
0
  6
ByLayer
 62
  256
370
   -1
100
AcDbLine
 10
36.18118824626223
 20
96.99050703191574
 11
36.8478549129289
 21
96.99050703191574
  0
LINE
  5
88
100
AcDbEntity
  8
0
  6
ByLayer
 62
  256
370
   -1
100
AcDbLine
 10
38.62563269070667
 20
95.87939592080463
 11
38.18118824626223
 21
95.87939592080463
  0
ARC
  5
89
100
AcDbEntity
  8
0
  6
ByLayer
 62
  256
370
   -1
100
AcDbCircle
 10
38.18118791422881
 20
96.32384003321566
 40
0.4444441124111536
100
AcDbArc
 50
179.999957195713
 51
270.000042804287
  0
LINE
  5
8A
100
AcDbEntity
  8
0
  6
ByLayer
 62
  256
370
   -1
100
AcDbLine
 10
37.73674380181779
 20
96.32384036524907
 11
37.73674380181779
 21
97.43495147636018
  0
ARC
  5
8B
100
AcDbEntity
  8
0
  6
ByLayer
 62
  256
370
   -1
100
AcDbCircle
 10
38.18118791422881
 20
97.43495180839359
 40
0.4444441124111536
100
AcDbArc
 50
89.99995719571304
 51
180.000042804287
  0
LINE
  5
8C
100
AcDbEntity
  8
0
  6
ByLayer
 62
  256
370
   -1
100
AcDbLine
 10
38.18118824626223
 20
97.87939592080463
 11
38.62563269070667
 21
97.87939592080463
  0
LINE
  5
8D
100
AcDbEntity
  8
0
  6
ByLayer
 62
  256
370
   -1
100
AcDbLine
 10
30.91629301348674
 20
108.5525727127703
 11
30.91629301348674
 21
110.5525727127703
  0
LINE
  5
8E
100
AcDbEntity
  8
0
  6
ByLayer
 62
  256
370
   -1
100
AcDbLine
 10
30.91629301348674
 20
110.5525727127703
 11
31.58295968015341
 21
109.4414616016592
  0
LINE
  5
8F
100
AcDbEntity
  8
0
  6
ByLayer
 62
  256
370
   -1
100
AcDbLine
 10
31.58295968015341
 20
109.4414616016592
 11
32.24962634682008
 21
110.5525727127703
  0
LINE
  5
90
100
AcDbEntity
  8
0
  6
ByLayer
 62
  256
370
   -1
100
AcDbLine
 10
32.24962634682008
 20
110.5525727127703
 11
32.24962634682008
 21
108.5525727127703
  0
LINE
  5
91
100
AcDbEntity
  8
0
  6
ByLayer
 62
  256
370
   -1
100
AcDbLine
 10
33.10147079126452
 20
109.1081282683259
 11
34.06442634682008
 21
109.1081282683259
  0
LINE
  5
92
100
AcDbEntity
  8
0
  6
ByLayer
 62
  256
370
   -1
100
AcDbLine
 10
32.91629301348674
 20
108.5525727127703
 11
33.58295968015341
 21
110.5525727127703
  0
LINE
  5
93
100
AcDbEntity
  8
0
  6
ByLayer
 62
  256
370
   -1
100
AcDbLine
 10
33.58295968015341
 20
110.5525727127703
 11
34.24962634682008
 21
108.5525727127703
  0
LINE
  5
94
100
AcDbEntity
  8
0
  6
ByLayer
 62
  256
370
   -1
100
AcDbLine
 10
34.91629301348674
 20
108.5525727127703
 11
36.24962634682008
 21
110.5525727127703
  0
LINE
  5
95
100
AcDbEntity
  8
0
  6
ByLayer
 62
  256
370
   -1
100
AcDbLine
 10
34.91629301348674
 20
110.5525727127703
 11
36.24962634682008
 21
108.5525727127703
  0
LINE
  5
96
100
AcDbEntity
  8
2
  6
ByLayer
 62
  256
370
   -1
100
AcDbLine
 10
16.77240187776204
 20
95.59776976987204
 11
17.43906854442871
 21
95.59776976987204
  0
ARC
  5
97
100
AcDbEntity
  8
2
  6
ByLayer
 62
  256
370
   -1
100
AcDbCircle
 10
17.43906887646212
 20
96.04221388228308
 40
0.4444441124111536
100
AcDbArc
 50
269.999957195713
 51
4.280428697680878e-05
  0
LINE
  5
98
100
AcDbEntity
  8
2
  6
ByLayer
 62
  256
370
   -1
100
AcDbLine
 10
17.88351298887315
 20
96.04221421431649
 11
17.88351298887315
 21
97.1533253254276
  0
ARC
  5
99
100
AcDbEntity
  8
2
  6
ByLayer
 62
  256
370
   -1
100
AcDbCircle
 10
17.43906887646212
 20
97.15332565746101
 40
0.4444441124111536
100
AcDbArc
 50
359.999957195713
 51
90.00004280428698
  0
LINE
  5
9A
100
AcDbEntity
  8
2
  6
ByLayer
 62
  256
370
   -1
100
AcDbLine
 10
17.43906854442871
 20
97.59776976987204
 11
16.77240187776204
 21
97.59776976987204
  0
LINE
  5
9B
100
AcDbEntity
  8
2
  6
ByLayer
 62
  256
370
   -1
100
AcDbLine
 10
16.77240187776204
 20
97.59776976987204
 11
16.77240187776204
 21
95.59776976987204
  0
LINE
  5
9C
100
AcDbEntity
  8
2
  6
ByLayer
 62
  256
370
   -1
100
AcDbLine
 10
19.43906854442883
 20
95.59776976987204
 11
18.55017965553994
 21
95.59776976987204
  0
LINE
  5
9D
100
AcDbEntity
  8
2
  6
ByLayer
 62
  256
370
   -1
100
AcDbLine
 10
18.55017965553994
 20
95.59776976987204
 11
18.55017965553994
 21
97.59776976987204
  0
LINE
  5
9E
100
AcDbEntity
  8
2
  6
ByLayer
 62
  256
370
   -1
100
AcDbLine
 10
18.55017965553994
 20
97.59776976987204
 11
19.43906854442883
 21
97.59776976987204
  0
LINE
  5
9F
100
AcDbEntity
  8
2
  6
ByLayer
 62
  256
370
   -1
100
AcDbLine
 10
18.55017965553994
 20
96.70888088098316
 11
19.21684632220661
 21
96.70888088098316
  0
LINE
  5
A0
100
AcDbEntity
  8
2
  6
ByLayer
 62
  256
370
   -1
100
AcDbLine
 10
20.99462409998439
 20
95.59776976987204
 11
20.55017965553994
 21
95.59776976987204
  0
ARC
  5
A1
100
AcDbEntity
  8
2
  6
ByLayer
 62
  256
370
   -1
100
AcDbCircle
 10
20.55017932350653
 20
96.04221388228308
 40
0.4444441124111536
100
AcDbArc
 50
179.999957195713
 51
270.000042804287
  0
LINE
  5
A2
100
AcDbEntity
  8
2
  6
ByLayer
 62
  256
370
   -1
100
AcDbLine
 10
20.1057352110955
 20
96.04221421431649
 11
20.1057352110955
 21
97.1533253254276
  0
ARC
  5
A3
100
AcDbEntity
  8
2
  6
ByLayer
 62
  256
370
   -1
100
AcDbCircle
 10
20.55017932350653
 20
97.15332565746101
 40
0.4444441124111536
100
AcDbArc
 50
89.99995719571304
 51
180.000042804287
  0
LINE
  5
A4
100
AcDbEntity
  8
2
  6
ByLayer
 62
  256
370
   -1
100
AcDbLine
 10
20.55017965553994
 20
97.59776976987204
 11
20.99462409998439
 21
97.59776976987204
  0
LINE
  5
A5
100
AcDbEntity
  8
2
  6
ByLayer
 62
  256
370
   -1
100
AcDbLine
 10
21.66129076665105
 20
95.59776976987204
 11
21.66129076665105
 21
97.59776976987204
  0
LINE
  5
A6
100
AcDbEntity
  8
2
  6
ByLayer
 62
  256
370
   -1
100
AcDbLine
 10
22.77240187776216
 20
95.59776976987204
 11
22.77240187776216
 21
97.59776976987204
  0
LINE
  5
A7
100
AcDbEntity
  8
2
  6
ByLayer
 62
  256
370
   -1
100
AcDbLine
 10
21.66129076665105
 20
96.70888088098316
 11
22.77240187776216
 21
96.70888088098316
  0
LINE
  5
A8
100
AcDbEntity
  8
2
  6
ByLayer
 62
  256
370
   -1
100
AcDbLine
 10
24.32795743331772
 20
95.59776976987204
 11
23.43906854442883
 21
95.59776976987204
  0
LINE
  5
A9
100
AcDbEntity
  8
2
  6
ByLayer
 62
  256
370
   -1
100
AcDbLine
 10
23.43906854442883
 20
95.59776976987204
 11
23.43906854442883
 21
97.59776976987204
  0
LINE
  5
AA
100
AcDbEntity
  8
2
  6
ByLayer
 62
  256
370
   -1
100
AcDbLine
 10
23.43906854442883
 20
97.59776976987204
 11
24.32795743331772
 21
97.59776976987204
  0
LINE
  5
AB
100
AcDbEntity
  8
2
  6
ByLayer
 62
  256
370
   -1
100
AcDbLine
 10
23.43906854442883
 20
96.70888088098316
 11
24.1057352110955
 21
96.70888088098316
  0
LINE
  5
AC
100
AcDbEntity
  8
2
  6
ByLayer
 62
  256
370
   -1
100
AcDbLine
 10
24.99462409998439
 20
95.59776976987204
 11
26.32795743331772
 21
97.59776976987204
  0
LINE
  5
AD
100
AcDbEntity
  8
2
  6
ByLayer
 62
  256
370
   -1
100
AcDbLine
 10
24.99462409998439
 20
97.59776976987204
 11
26.32795743331772
 21
95.59776976987204
  0
LINE
  5
AE
100
AcDbEntity
  8
2
  6
ByLayer
 62
  256
370
   -1
100
AcDbLine
 10
17.58598853601169
 20
85.45655348522341
 11
18.03043298045613
 21
83.45655348522341
  0
LINE
  5
AF
100
AcDbEntity
  8
2
  6
ByLayer
 62
  256
370
   -1
100
AcDbLine
 10
18.03043298045613
 20
83.45655348522341
 11
18.47487742490058
 21
84.78988681855674
  0
LINE
  5
B0
100
AcDbEntity
  8
2
  6
ByLayer
 62
  256
370
   -1
100
AcDbLine
 10
18.47487742490058
 20
84.78988681855674
 11
18.91932186934502
 21
83.45655348522341
  0
LINE
  5
B1
100
AcDbEntity
  8
2
  6
ByLayer
 62
  256
370
   -1
100
AcDbLine
 10
18.91932186934502
 20
83.45655348522341
 11
19.36376631378947
 21
85.45655348522341
  0
LINE
  5
B2
100
AcDbEntity
  8
2
  6
ByLayer
 62
  256
370
   -1
100
AcDbLine
 10
20.03043298045613
 20
83.45655348522341
 11
20.6970996471228
 21
83.45655348522341
  0
ARC
  5
B3
100
AcDbEntity
  8
2
  6
ByLayer
 62
  256
370
   -1
100
AcDbCircle
 10
20.69709997915621
 20
83.90099759763444
 40
0.4444441124111536
100
AcDbArc
 50
269.999957195713
 51
4.280428697680878e-05
  0
LINE
  5
B4
100
AcDbEntity
  8
2
  6
ByLayer
 62
  256
370
   -1
100
AcDbLine
 10
21.14154409156724
 20
83.90099792966785
 11
21.14154409156724
 21
85.01210904077897
  0
ARC
  5
B5
100
AcDbEntity
  8
2
  6
ByLayer
 62
  256
370
   -1
100
AcDbCircle
 10
20.69709997915621
 20
85.01210937281238
 40
0.4444441124111536
100
AcDbArc
 50
359.999957195713
 51
90.00004280428698
  0
LINE
  5
B6
100
AcDbEntity
  8
2
  6
ByLayer
 62
  256
370
   -1
100
AcDbLine
 10
20.6970996471228
 20
85.45655348522341
 11
20.03043298045613
 21
85.45655348522341
  0
LINE
  5
B7
100
AcDbEntity
  8
2
  6
ByLayer
 62
  256
370
   -1
100
AcDbLine
 10
20.03043298045613
 20
85.45655348522341
 11
20.03043298045613
 21
83.45655348522341
  0
ARC
  5
B8
100
AcDbEntity
  8
2
  6
ByLayer
 62
  256
370
   -1
100
AcDbCircle
 10
22.47487668909753
 20
84.56766238892502
 40
1.111108903701848
100
AcDbArc
 50
233.1300644115061
 51
270.0000379426498
  0
ARC
  5
B9
100
AcDbEntity
  8
2
  6
ByLayer
 62
  256
370
   -1
100
AcDbCircle
 10
22.4748772547364
 20
83.90099767582782
 40
0.4444441906044482
100
AcDbArc
 50
270.0000219368293
 51
62.98101938430567
  0
LINE
  5
BA
100
AcDbEntity
  8
2
  6
ByLayer
 62
  256
370
   -1
100
AcDbLine
 10
22.67678186934515
 20
84.29693348522341
 11
22.05075075823403
 21
84.61617348522341
  0
ARC
  5
BB
100
AcDbEntity
  8
2
  6
ByLayer
 62
  256
370
   -1
100
AcDbCircle
 10
22.25265537284278
 20
85.01210929461899
 40
0.4444441906044482
100
AcDbArc
 50
90.00002193682934
 51
242.9810193843057
  0
ARC
  5
BC
100
AcDbEntity
  8
2
  6
ByLayer
 62
  256
370
   -1
100
AcDbCircle
 10
22.25265516379171
 20
84.01210884634511
 40
1.444444638878299
100
AcDbArc
 50
67.38013659445404
 51
89.99999845750555
  0
LINE
  5
BD
100
AcDbEntity
  8
2
  6
ByLayer
 62
  256
370
   -1
100
AcDbLine
 10
23.58598811200751
 20
85.45655348522341
 11
24.69709922311862
 21
85.45655348522341
  0
LINE
  5
BE
100
AcDbEntity
  8
2
  6
ByLayer
 62
  256
370
   -1
100
AcDbLine
 10
24.69709922311862
 20
85.45655348522341
 11
23.58598811200751
 21
83.45655348522341
  0
LINE
  5
BF
100
AcDbEntity
  8
2
  6
ByLayer
 62
  256
370
   -1
100
AcDbLine
 10
23.58598811200751
 20
83.45655348522341
 11
24.69709922311862
 21
83.45655348522341
  0
LINE
  5
C0
100
AcDbEntity
  8
2
  6
ByLayer
 62
  256
370
   -1
100
AcDbLine
 10
31.32051335310097
 20
84.10598442442316
 11
32.28346890865652
 21
84.10598442442316
  0
LINE
  5
C1
100
AcDbEntity
  8
2
  6
ByLayer
 62
  256
370
   -1
100
AcDbLine
 10
31.13533557532319
 20
83.5504288688676
 11
31.80200224198986
 21
85.5504288688676
  0
LINE
  5
C2
100
AcDbEntity
  8
2
  6
ByLayer
 62
  256
370
   -1
100
AcDbLine
 10
31.80200224198986
 20
85.5504288688676
 11
32.46866890865653
 21
83.5504288688676
  0
LINE
  5
C3
100
AcDbEntity
  8
2
  6
ByLayer
 62
  256
370
   -1
100
AcDbLine
 10
33.13533557532319
 20
83.5504288688676
 11
33.13533557532319
 21
85.5504288688676
  0
LINE
  5
C4
100
AcDbEntity
  8
2
  6
ByLayer
 62
  256
370
   -1
100
AcDbLine
 10
33.13533557532319
 20
85.5504288688676
 11
34.2464466864343
 21
83.5504288688676
  0
LINE
  5
C5
100
AcDbEntity
  8
2
  6
ByLayer
 62
  256
370
   -1
100
AcDbLine
 10
34.2464466864343
 20
83.5504288688676
 11
34.2464466864343
 21
85.5504288688676
  0
LINE
  5
C6
100
AcDbEntity
  8
2
  6
ByLayer
 62
  256
370
   -1
100
AcDbLine
 10
34.91311335310097
 20
83.5504288688676
 11
35.57978001976763
 21
83.5504288688676
  0
ARC
  5
C7
100
AcDbEntity
  8
2
  6
ByLayer
 62
  256
370
   -1
100
AcDbCircle
 10
35.57978035180105
 20
83.99487298127863
 40
0.4444441124111536
100
AcDbArc
 50
269.999957195713
 51
4.280428697680878e-05
  0
LINE
  5
C8
100
AcDbEntity
  8
2
  6
ByLayer
 62
  256
370
   -1
100
AcDbLine
 10
36.02422446421208
 20
83.99487331331204
 11
36.02422446421208
 21
85.10598442442316
  0
ARC
  5
C9
100
AcDbEntity
  8
2
  6
ByLayer
 62
  256
370
   -1
100
AcDbCircle
 10
35.57978035180105
 20
85.10598475645656
 40
0.4444441124111536
100
AcDbArc
 50
359.999957195713
 51
90.00004280428698
  0
LINE
  5
CA
100
AcDbEntity
  8
2
  6
ByLayer
 62
  256
370
   -1
100
AcDbLine
 10
35.57978001976763
 20
85.5504288688676
 11
34.91311335310097
 21
85.5504288688676
  0
LINE
  5
CB
100
AcDbEntity
  8
2
  6
ByLayer
 62
  256
370
   -1
100
AcDbLine
 10
34.91311335310097
 20
85.5504288688676
 11
34.91311335310097
 21
83.5504288688676
  0
ARC
  5
CC
100
AcDbEntity
  8
2
  6
ByLayer
 62
  256
370
   -1
100
AcDbCircle
 10
44.86473663561348
 20
84.01210904077897
 40
0.5555555555555556
100
AcDbArc
 50
180
 51
0
  0
LINE
  5
CD
100
AcDbEntity
  8
2
  6
ByLayer
 62
  256
370
   -1
100
AcDbLine
 10
44.30918108005793
 20
84.01210904077897
 11
44.30918108005793
 21
84.90099792966785
  0
ARC
  5
CE
100
AcDbEntity
  8
2
  6
ByLayer
 62
  256
370
   -1
100
AcDbCircle
 10
44.86473663561348
 20
84.90099792966785
 40
0.5555555555555556
100
AcDbArc
 50
0
 51
180
  0
LINE
  5
CF
100
AcDbEntity
  8
2
  6
ByLayer
 62
  256
370
   -1
100
AcDbLine
 10
45.42029219116904
 20
84.90099792966785
 11
45.42029219116904
 21
84.01210904077897
  0
LINE
  5
D0
100
AcDbEntity
  8
2
  6
ByLayer
 62
  256
370
   -1
100
AcDbLine
 10
46.0869588578357
 20
83.45655348522341
 11
46.0869588578357
 21
85.45655348522341
  0
LINE
  5
D1
100
AcDbEntity
  8
2
  6
ByLayer
 62
  256
370
   -1
100
AcDbLine
 10
46.0869588578357
 20
85.45655348522341
 11
46.64251441339126
 21
85.45655348522341
  0
ARC
  5
D2
100
AcDbEntity
  8
2
  6
ByLayer
 62
  256
370
   -1
100
AcDbCircle
 10
46.64251441339126
 20
84.90099792966785
 40
0.5555555555555556
100
AcDbArc
 50
270
 51
90
  0
LINE
  5
D3
100
AcDbEntity
  8
2
  6
ByLayer
 62
  256
370
   -1
100
AcDbLine
 10
46.64251441339126
 20
84.3454423741123
 11
46.0869588578357
 21
84.3454423741123
  0
LINE
  5
D4
100
AcDbEntity
  8
2
  6
ByLayer
 62
  256
370
   -1
100
AcDbLine
 10
47.19806996894682
 20
83.45655348522341
 11
46.74889441339126
 21
84.3557223741123
  0
LINE
  5
D5
100
AcDbEntity
  8
2
  6
ByLayer
 62
  256
370
   -1
100
AcDbLine
 10
55.16743378823596
 20
83.5504288688676
 11
56.5007671215693
 21
85.5504288688676
  0
LINE
  5
D6
100
AcDbEntity
  8
2
  6
ByLayer
 62
  256
370
   -1
100
AcDbLine
 10
55.16743378823596
 20
85.5504288688676
 11
56.5007671215693
 21
83.5504288688676
  0
ARC
  5
D7
100
AcDbEntity
  8
2
  6
ByLayer
 62
  256
370
   -1
100
AcDbCircle
 10
57.72298934379152
 20
84.10598442442316
 40
0.5555555555555556
100
AcDbArc
 50
180
 51
0
  0
LINE
  5
D8
100
AcDbEntity
  8
2
  6
ByLayer
 62
  256
370
   -1
100
AcDbLine
 10
57.16743378823596
 20
84.10598442442316
 11
57.16743378823596
 21
84.99487331331204
  0
ARC
  5
D9
100
AcDbEntity
  8
2
  6
ByLayer
 62
  256
370
   -1
100
AcDbCircle
 10
57.72298934379152
 20
84.99487331331204
 40
0.5555555555555556
100
AcDbArc
 50
0
 51
180
  0
LINE
  5
DA
100
AcDbEntity
  8
2
  6
ByLayer
 62
  256
370
   -1
100
AcDbLine
 10
58.27854489934708
 20
84.99487331331204
 11
58.27854489934708
 21
84.10598442442316
  0
LINE
  5
DB
100
AcDbEntity
  8
2
  6
ByLayer
 62
  256
370
   -1
100
AcDbLine
 10
58.94521156601374
 20
83.5504288688676
 11
58.94521156601374
 21
85.5504288688676
  0
LINE
  5
DC
100
AcDbEntity
  8
2
  6
ByLayer
 62
  256
370
   -1
100
AcDbLine
 10
58.94521156601374
 20
85.5504288688676
 11
59.5007671215693
 21
85.5504288688676
  0
ARC
  5
DD
100
AcDbEntity
  8
2
  6
ByLayer
 62
  256
370
   -1
100
AcDbCircle
 10
59.5007671215693
 20
84.99487331331204
 40
0.5555555555555556
100
AcDbArc
 50
270
 51
90
  0
LINE
  5
DE
100
AcDbEntity
  8
2
  6
ByLayer
 62
  256
370
   -1
100
AcDbLine
 10
59.5007671215693
 20
84.43931775775648
 11
58.94521156601374
 21
84.43931775775648
  0
LINE
  5
DF
100
AcDbEntity
  8
2
  6
ByLayer
 62
  256
370
   -1
100
AcDbLine
 10
60.05632267712485
 20
83.5504288688676
 11
59.6071471215693
 21
84.44959775775649
  0
LINE
  5
E0
100
AcDbEntity
  8
2
  6
ByLayer
 62
  256
370
   -1
100
AcDbLine
 10
20.95510640905499
 20
47.39288647090778
 11
21.91806196461055
 21
47.39288647090778
  0
LINE
  5
E1
100
AcDbEntity
  8
2
  6
ByLayer
 62
  256
370
   -1
100
AcDbLine
 10
20.76992863127721
 20
46.83733091535223
 11
21.43659529794388
 21
48.83733091535223
  0
LINE
  5
E2
100
AcDbEntity
  8
2
  6
ByLayer
 62
  256
370
   -1
100
AcDbLine
 10
21.43659529794388
 20
48.83733091535223
 11
22.10326196461055
 21
46.83733091535223
  0
LINE
  5
E3
100
AcDbEntity
  8
2
  6
ByLayer
 62
  256
370
   -1
100
AcDbLine
 10
37.4798731222706
 20
47.87021254009318
 11
36.92431756671505
 21
47.87021254009318
  0
ARC
  5
E4
100
AcDbEntity
  8
2
  6
ByLayer
 62
  256
370
   -1
100
AcDbCircle
 10
37.4798731222706
 20
48.31465698453762
 40
0.4444444444444444
100
AcDbArc
 50
270
 51
90
  0
LINE
  5
E5
100
AcDbEntity
  8
2
  6
ByLayer
 62
  256
370
   -1
100
AcDbLine
 10
37.4798731222706
 20
48.75910142898206
 11
36.92431756671505
 21
48.75910142898206
  0
LINE
  5
E6
100
AcDbEntity
  8
2
  6
ByLayer
 62
  256
370
   -1
100
AcDbLine
 10
36.92431756671505
 20
48.75910142898206
 11
36.92431756671505
 21
46.75910142898206
  0
LINE
  5
E7
100
AcDbEntity
  8
2
  6
ByLayer
 62
  256
370
   -1
100
AcDbLine
 10
36.92431756671505
 20
46.75910142898206
 11
37.4798731222706
 21
46.75910142898206
  0
ARC
  5
E8
100
AcDbEntity
  8
2
  6
ByLayer
 62
  256
370
   -1
100
AcDbCircle
 10
37.4798731222706
 20
47.31465698453762
 40
0.5555555555555556
100
AcDbArc
 50
270
 51
90
  0
LINE
  5
E9
100
AcDbEntity
  8
2
  6
ByLayer
 62
  256
370
   -1
100
AcDbLine
 10
69.11575120803548
 20
46.91556040172238
 11
69.78241787470215
 21
46.91556040172238
  0
ARC
  5
EA
100
AcDbEntity
  8
2
  6
ByLayer
 62
  256
370
   -1
100
AcDbCircle
 10
69.78241820673556
 20
47.36000451413341
 40
0.4444441124111536
100
AcDbArc
 50
269.999957195713
 51
4.280428697680878e-05
  0
LINE
  5
EB
100
AcDbEntity
  8
2
  6
ByLayer
 62
  256
370
   -1
100
AcDbLine
 10
70.22686231914659
 20
47.36000484616682
 11
70.22686231914659
 21
48.47111595727794
  0
ARC
  5
EC
100
AcDbEntity
  8
2
  6
ByLayer
 62
  256
370
   -1
100
AcDbCircle
 10
69.78241820673556
 20
48.47111628931135
 40
0.4444441124111536
100
AcDbArc
 50
359.999957195713
 51
90.00004280428698
  0
LINE
  5
ED
100
AcDbEntity
  8
2
  6
ByLayer
 62
  256
370
   -1
100
AcDbLine
 10
69.78241787470215
 20
48.91556040172238
 11
69.11575120803548
 21
48.91556040172238
  0
LINE
  5
EE
100
AcDbEntity
  8
2
  6
ByLayer
 62
  256
370
   -1
100
AcDbLine
 10
69.11575120803548
 20
48.91556040172238
 11
69.11575120803548
 21
46.91556040172238
  0
LINE
  5
EF
100
AcDbEntity
  8
2
  6
ByLayer
 62
  256
370
   -1
100
AcDbLine
 10
18.45446203704796
 20
12.0019930393753
 11
17.8989064814924
 21
12.0019930393753
  0
ARC
  5
F0
100
AcDbEntity
  8
2
  6
ByLayer
 62
  256
370
   -1
100
AcDbCircle
 10
18.45446203704796
 20
12.44643748381974
 40
0.4444444444444444
100
AcDbArc
 50
270
 51
90
  0
LINE
  5
F1
100
AcDbEntity
  8
2
  6
ByLayer
 62
  256
370
   -1
100
AcDbLine
 10
18.45446203704796
 20
12.89088192826419
 11
17.8989064814924
 21
12.89088192826419
  0
LINE
  5
F2
100
AcDbEntity
  8
2
  6
ByLayer
 62
  256
370
   -1
100
AcDbLine
 10
17.8989064814924
 20
12.89088192826419
 11
17.8989064814924
 21
10.89088192826419
  0
LINE
  5
F3
100
AcDbEntity
  8
2
  6
ByLayer
 62
  256
370
   -1
100
AcDbLine
 10
17.8989064814924
 20
10.89088192826419
 11
18.45446203704796
 21
10.89088192826419
  0
ARC
  5
F4
100
AcDbEntity
  8
2
  6
ByLayer
 62
  256
370
   -1
100
AcDbCircle
 10
18.45446203704796
 20
11.44643748381974
 40
0.5555555555555556
100
AcDbArc
 50
270
 51
90
  0
LINE
  5
F5
100
AcDbEntity
  8
2
  6
ByLayer
 62
  256
370
   -1
100
AcDbLine
 10
19.86186203704796
 20
11.44643748381974
 11
20.82481759260352
 21
11.44643748381974
  0
LINE
  5
F6
100
AcDbEntity
  8
2
  6
ByLayer
 62
  256
370
   -1
100
AcDbLine
 10
19.67668425927018
 20
10.89088192826419
 11
20.34335092593685
 21
12.89088192826419
  0
LINE
  5
F7
100
AcDbEntity
  8
2
  6
ByLayer
 62
  256
370
   -1
100
AcDbLine
 10
20.34335092593685
 20
12.89088192826419
 11
21.01001759260351
 21
10.89088192826419
  0
ARC
  5
F8
100
AcDbEntity
  8
2
  6
ByLayer
 62
  256
370
   -1
100
AcDbCircle
 10
22.34335019013368
 20
12.00199083196579
 40
1.111108903701848
100
AcDbArc
 50
233.1300644115061
 51
270.0000379426498
  0
ARC
  5
F9
100
AcDbEntity
  8
2
  6
ByLayer
 62
  256
370
   -1
100
AcDbCircle
 10
22.34335075577255
 20
11.3353261188686
 40
0.4444441906044482
100
AcDbArc
 50
270.0000219368293
 51
62.98101938430567
  0
LINE
  5
FA
100
AcDbEntity
  8
2
  6
ByLayer
 62
  256
370
   -1
100
AcDbLine
 10
22.54525537038129
 20
11.73126192826419
 11
21.91922425927018
 21
12.05050192826419
  0
ARC
  5
FB
100
AcDbEntity
  8
2
  6
ByLayer
 62
  256
370
   -1
100
AcDbCircle
 10
22.12112887387893
 20
12.44643773765977
 40
0.4444441906044482
100
AcDbArc
 50
90.00002193682934
 51
242.9810193843057
  0
ARC
  5
FC
100
AcDbEntity
  8
2
  6
ByLayer
 62
  256
370
   -1
100
AcDbCircle
 10
22.12112866482786
 20
11.44643728938589
 40
1.444444638878299
100
AcDbArc
 50
67.38013659445404
 51
89.99999845750555
  0
LINE
  5
FD
100
AcDbEntity
  8
2
  6
ByLayer
 62
  256
370
   -1
100
AcDbLine
 10
24.34335050193255
 20
10.89088192826419
 11
23.45446161304366
 21
10.89088192826419
  0
LINE
  5
FE
100
AcDbEntity
  8
2
  6
ByLayer
 62
  256
370
   -1
100
AcDbLine
 10
23.45446161304366
 20
10.89088192826419
 11
23.45446161304366
 21
12.89088192826419
  0
LINE
  5
FF
100
AcDbEntity
  8
2
  6
ByLayer
 62
  256
370
   -1
100
AcDbLine
 10
23.45446161304366
 20
12.89088192826419
 11
24.34335050193255
 21
12.89088192826419
  0
LINE
  5
100
100
AcDbEntity
  8
2
  6
ByLayer
 62
  256
370
   -1
100
AcDbLine
 10
23.45446161304366
 20
12.0019930393753
 11
24.12112827971033
 21
12.0019930393753
  0
LINE
  5
101
100
AcDbEntity
  8
2
  6
ByLayer
 62
  256
370
   -1
100
AcDbLine
 10
26.51001716859922
 20
10.89088192826419
 11
26.51001716859922
 21
12.89088192826419
  0
LINE
  5
102
100
AcDbEntity
  8
2
  6
ByLayer
 62
  256
370
   -1
100
AcDbLine
 10
26.51001716859922
 20
12.89088192826419
 11
27.62112827971033
 21
10.89088192826419
  0
LINE
  5
103
100
AcDbEntity
  8
2
  6
ByLayer
 62
  256
370
   -1
100
AcDbLine
 10
27.62112827971033
 20
10.89088192826419
 11
27.62112827971033
 21
12.89088192826419
  0
ENDSEC
  0
SECTION
  2
OBJECTS
  0
DICTIONARY
  5
C
330
0
100
AcDbDictionary
281
    1
  3
ACAD_GROUP
350
D
  0
DICTIONARY
  5
D
330
C
100
AcDbDictionary
281
    1
  0
ENDSEC
  0
EOF
