999
dxfrw 0.6.3
  0
SECTION
  2
HEADER
  9
$ACADVER
  1
AC1021
  9
$DWGCODEPAGE
  3
ANSI_1252
  9
$INSBASE
 10
0
 20
0
 30
0
  9
$EXTMIN
 10
11.77285131117053
 20
8.14903015171884
 30
0
  9
$EXTMAX
 10
79.32335991296542
 20
112.1490301517189
 30
0
  9
$LIMMIN
 10
0
 20
0
  9
$LIMMAX
 10
420
 20
297
  9
$ORTHOMODE
 70
    0
  9
$REGENMODE
 70
    1
  9
$FILLMODE
 70
    1
  9
$QTEXTMODE
 70
    0
  9
$MIRRTEXT
 70
    0
  9
$LTSCALE
 40
1
  9
$ATTMODE
 70
    0
  9
$TEXTSIZE
 40
2.5
  9
$TRACEWID
 40
15.68
  9
$TEXTSTYLE
  7
STANDARD
  9
$CLAYER
  8
0
  9
$CELTYPE
  6
BYLAYER
  9
$CECOLOR
 62
  256
  9
$CELTSCALE
 40
1
  9
$DISPSILH
 70
    0
  9
$DIMSCALE
 40
2.5
  9
$DIMASZ
 40
2.5
  9
$DIMEXO
 40
0.625
  9
$DIMDLI
 40
3.75
  9
$DIMRND
 40
0
  9
$DIMDLE
 40
0
  9
$DIMEXE
 40
1.25
  9
$DIMTP
 40
0
  9
$DIMTM
 40
0
  9
$DIMTXT
 40
2.5
  9
$DIMCEN
 40
2.5
  9
$DIMTSZ
 40
0
  9
$DIMTOL
 70
    0
  9
$DIMLIM
 70
    0
  9
$DIMTIH
 70
    0
  9
$DIMTOH
 70
    0
  9
$DIMSE1
 70
    0
  9
$DIMSE2
 70
    0
  9
$DIMTAD
 70
    1
  9
$DIMZIN
 70
    8
  9
$DIMBLK
  1

  9
$DIMASO
 70
    1
  9
$DIMSHO
 70
    1
  9
$DIMPOST
  1

  9
$DIMAPOST
  1

  9
$DIMALT
 70
    0
  9
$DIMALTD
 70
    3
  9
$DIMALTF
 40
0.03937
  9
$DIMLFAC
 40
1
  9
$DIMTOFL
 70
    1
  9
$DIMTVP
 40
0
  9
$DIMTIX
 70
    0
  9
$DIMSOXD
 70
    0
  9
$DIMSAH
 70
    0
  9
$DIMBLK1
  1

  9
$DIMBLK2
  1

  9
$DIMSTYLE
  2
Standard
  9
$DIMCLRD
 70
    0
  9
$DIMCLRE
 70
    0
  9
$DIMCLRT
 70
    0
  9
$DIMTFAC
 40
1
  9
$DIMGAP
 40
0.625
  9
$DIMJUST
 70
    0
  9
$DIMSD1
 70
    0
  9
$DIMSD2
 70
    0
  9
$DIMTOLJ
 70
    0
  9
$DIMTZIN
 70
    8
  9
$DIMALTZ
 70
    0
  9
$DIMALTTZ
 70
    0
  9
$DIMUPT
 70
    0
  9
$DIMDEC
 70
    4
  9
$DIMTDEC
 70
    2
  9
$DIMALTU
 70
    2
  9
$DIMALTTD
 70
    3
  9
$DIMTXSTY
  7
STANDARD
  9
$DIMAUNIT
 70
    0
  9
$DIMADEC
 70
    0
  9
$DIMALTRND
 40
0
  9
$DIMAZIN
 70
    0
  9
$DIMDSEP
 70
   44
  9
$DIMATFIT
 70
    3
  9
$DIMFRAC
 70
    0
  9
$DIMLDRBLK
  1
STANDARD
  9
$DIMLUNIT
 70
    2
  9
$DIMLWD
 70
   -2
  9
$DIMLWE
 70
   -2
  9
$DIMTMOVE
 70
    0
  9
$DIMFXL
 40
1
  9
$DIMFXLON
 70
    0
  9
$DIMJOGANG
 40
0.7854
  9
$DIMTFILL
 70
    0
  9
$DIMTFILLCLR
 70
    0
  9
$DIMARCSYM
 70
    0
  9
$DIMLTYPE
  6

  9
$DIMLTEX1
  6

  9
$DIMLTEX2
  6

  9
$LUNITS
 70
    2
  9
$LUPREC
 70
    4
  9
$SKETCHINC
 40
1
  9
$FILLETRAD
 40
0
  9
$AUNITS
 70
    0
  9
$AUPREC
 70
    2
  9
$MENU
  1
.
  9
$ELEVATION
 40
0
  9
$PELEVATION
 40
0
  9
$THICKNESS
 40
0
  9
$LIMCHECK
 70
    0
  9
$CHAMFERA
 40
0
  9
$CHAMFERB
 40
0
  9
$CHAMFERC
 40
0
  9
$CHAMFERD
 40
0
  9
$SKPOLY
 70
    0
  9
$USRTIMER
 70
    1
  9
$ANGBASE
 50
0
  9
$ANGDIR
 70
    0
  9
$PDMODE
 70
   34
  9
$PDSIZE
 40
0
  9
$PLINEWID
 40
0
  9
$SPLFRAME
 70
    0
  9
$SPLINETYPE
 70
    2
  9
$SPLINESEGS
 70
    8
  9
$HANDSEED
  5
20000
  9
$SURFTAB1
 70
    6
  9
$SURFTAB2
 70
    6
  9
$SURFTYPE
 70
    6
  9
$SURFU
 70
    6
  9
$SURFV
 70
    6
  9
$UCSBASE
  2

  9
$UCSNAME
  2

  9
$UCSORG
 10
0
 20
0
 30
0
  9
$UCSXDIR
 10
1
 20
0
 30
0
  9
$UCSYDIR
 10
0
 20
1
 30
0
  9
$UCSORTHOREF
  2

  9
$UCSORTHOVIEW
 70
    0
  9
$UCSORGTOP
 10
0
 20
0
 30
0
  9
$UCSORGBOTTOM
 10
0
 20
0
 30
0
  9
$UCSORGLEFT
 10
0
 20
0
 30
0
  9
$UCSORGRIGHT
 10
0
 20
0
 30
0
  9
$UCSORGFRONT
 10
0
 20
0
 30
0
  9
$UCSORGBACK
 10
0
 20
0
 30
0
  9
$PUCSBASE
  2

  9
$PUCSNAME
  2

  9
$PUCSORG
 10
0
 20
0
 30
0
  9
$PUCSXDIR
 10
1
 20
0
 30
0
  9
$PUCSYDIR
 10
0
 20
1
 30
0
  9
$PUCSORTHOREF
  2

  9
$PUCSORTHOVIEW
 70
    0
  9
$PUCSORGTOP
 10
0
 20
0
 30
0
  9
$PUCSORGBOTTOM
 10
0
 20
0
 30
0
  9
$PUCSORGLEFT
 10
0
 20
0
 30
0
  9
$PUCSORGRIGHT
 10
0
 20
0
 30
0
  9
$PUCSORGFRONT
 10
0
 20
0
 30
0
  9
$PUCSORGBACK
 10
0
 20
0
 30
0
  9
$USERI1
 70
    0
  9
$USERI2
 70
    0
  9
$USERI3
 70
    0
  9
$USERI4
 70
    0
  9
$USERI5
 70
    0
  9
$USERR1
 40
0
  9
$USERR2
 40
0
  9
$USERR3
 40
0
  9
$USERR4
 40
0
  9
$USERR5
 40
0
  9
$WORLDVIEW
 70
    1
  9
$SHADEDGE
 70
    3
  9
$SHADEDIF
 70
   70
  9
$TILEMODE
 70
    1
  9
$MAXACTVP
 70
   64
  9
$PINSBASE
 10
0
 20
0
 30
0
  9
$PLIMCHECK
 70
    0
  9
$PEXTMIN
 10
0
 20
0
 30
0
  9
$PEXTMAX
 10
0
 20
0
 30
0
  9
$GRIDMODE
 70
    0
  9
$SNAPSTYLE
 70
    0
  9
$PLIMMIN
 10
0
 20
0
  9
$PLIMMAX
 10
210
 20
297
  9
$UNITMODE
 70
    0
  9
$VISRETAIN
 70
    1
  9
$PLINEGEN
 70
    0
  9
$PSLTSCALE
 70
    1
  9
$TREEDEPTH
 70
 3020
  9
$CMLSTYLE
  2
Standard
  9
$CMLJUST
 70
    0
  9
$CMLSCALE
 40
20
  9
$PROXYGRAPHICS
 70
    1
  9
$MEASUREMENT
 70
    1
  9
$CELWEIGHT
370
   -1
  9
$ENDCAPS
280
    0
  9
$JOINSTYLE
280
    0
  9
$LWDISPLAY
290
    0
  9
$INSUNITS
 70
    4
  9
$HYPERLINKBASE
  1

  9
$STYLESHEET
  1

  9
$XEDIT
290
    1
  9
$CEPSNTYPE
380
    0
  9
$PSTYLEMODE
290
    1
  9
$EXTNAMES
290
    1
  9
$PSVPSCALE
 40
1
  9
$OLESTARTUP
290
    0
  9
$SORTENTS
280
  127
  9
$INDEXCTL
280
    0
  9
$HIDETEXT
280
    1
  9
$XCLIPFRAME
290
    0
  9
$HALOGAP
280
    0
  9
$OBSCOLOR
 70
  257
  9
$OBSLTYPE
280
    0
  9
$INTERSECTIONDISPLAY
280
    0
  9
$INTERSECTIONCOLOR
 70
  257
  9
$DIMASSOC
280
    1
  9
$PROJECTNAME
  1

  9
$CAMERADISPLAY
290
    0
  9
$LENSLENGTH
 40
50
  9
$CAMERAHEIGHT
 40
0
  9
$STEPSPERSEC
 40
2
  9
$STEPSIZE
 40
50
  9
$3DDWFPREC
 40
2
  9
$PSOLWIDTH
 40
5
  9
$PSOLHEIGHT
 40
80
  9
$LOFTANG1
 40
1.570796326794897
  9
$LOFTANG2
 40
1.570796326794897
  9
$LOFTMAG1
 40
0
  9
$LOFTMAG2
 40
0
  9
$LOFTPARAM
 70
    7
  9
$LOFTNORMALS
280
    1
  9
$LATITUDE
 40
1
  9
$LONGITUDE
 40
1
  9
$NORTHDIRECTION
 40
0
  9
$TIMEZONE
 70
-8000
  9
$LIGHTGLYPHDISPLAY
280
    1
  9
$TILEMODELIGHTSYNCH
280
    1
  9
$SOLIDHIST
280
    1
  9
$SHOWHIST
280
    1
  9
$DWFFRAME
280
    2
  9
$DGNFRAME
280
    0
  9
$REALWORLDSCALE
290
    1
  9
$INTERFERECOLOR
 62
    1
  9
$CSHADOW
280
    0
  9
$SHADOWPLANELOCATION
 40
0
  0
ENDSEC
  0
SECTION
  2
CLASSES
  0
ENDSEC
  0
SECTION
  2
TABLES
  0
TABLE
  2
VPORT
  5
8
330
0
100
AcDbSymbolTable
 70
    1
  0
VPORT
  5
31
330
2
100
AcDbSymbolTableRecord
100
AcDbViewportTableRecord
  2
*ACTIVE
 70
    0
 10
0
 20
0
 11
1
 21
1
 12
81.09612625538024
 22
56.77474892395986
 13
0
 23
0
 14
10
 24
10
 15
10
 25
10
 16
0
 26
0
 36
1
 17
0
 27
0
 37
0
 40
106.9842180774749
 41
2.178521617852162
 42
50
 43
0
 44
0
 50
0
 51
0
 71
    0
 72
  100
 73
    1
 74
    3
 75
    0
 76
    0
 77
    0
 78
    0
281
    0
 65
    1
110
0
120
0
130
0
111
1
121
0
131
0
112
0
122
1
132
0
 79
    0
146
0
348
10020
 60
    7
 61
    5
292
1
282
    1
141
0
142
0
 63
  250
421
3358443
  0
ENDTAB
  0
TABLE
  2
LTYPE
  5
5
330
0
100
AcDbSymbolTable
 70
    4
  0
LTYPE
  5
14
330
5
100
AcDbSymbolTableRecord
100
AcDbLinetypeTableRecord
  2
ByBlock
 70
    0
  3

 72
   65
 73
    0
 40
0
  0
LTYPE
  5
15
330
5
100
AcDbSymbolTableRecord
100
AcDbLinetypeTableRecord
  2
ByLayer
 70
    0
  3

 72
   65
 73
    0
 40
0
  0
LTYPE
  5
16
330
5
100
AcDbSymbolTableRecord
100
AcDbLinetypeTableRecord
  2
Continuous
 70
    0
  3
Solid line
 72
   65
 73
    0
 40
0
  0
LTYPE
  5
32
330
5
100
AcDbSymbolTableRecord
100
AcDbLinetypeTableRecord
  2
DOT
 70
    0
  3
Dot . . . . . . . . . . . . . . . . . . . . . .
 72
   65
 73
    2
 40
6.35
 49
0
 74
    0
 49
-6.35
 74
    0
  0
LTYPE
  5
33
330
5
100
AcDbSymbolTableRecord
100
AcDbLinetypeTableRecord
  2
DOTTINY
 70
    0
  3
Dot (.15x) .....................................
 72
   65
 73
    2
 40
0.9525
 49
0
 74
    0
 49
-0.9525
 74
    0
  0
LTYPE
  5
34
330
5
100
AcDbSymbolTableRecord
100
AcDbLinetypeTableRecord
  2
DOT2
 70
    0
  3
Dot (.5x) .....................................
 72
   65
 73
    2
 40
3.175
 49
0
 74
    0
 49
-3.175
 74
    0
  0
LTYPE
  5
35
330
5
100
AcDbSymbolTableRecord
100
AcDbLinetypeTableRecord
  2
DOTX2
 70
    0
  3
Dot (2x) .  .  .  .  .  .  .  .  .  .  .  .  .
 72
   65
 73
    2
 40
12.7
 49
0
 74
    0
 49
-12.7
 74
    0
  0
LTYPE
  5
36
330
5
100
AcDbSymbolTableRecord
100
AcDbLinetypeTableRecord
  2
DASHED
 70
    0
  3
Dashed _ _ _ _ _ _ _ _ _ _ _ _ _ _ _ _ _
 72
   65
 73
    2
 40
19.05
 49
12.7
 74
    0
 49
-6.35
 74
    0
  0
LTYPE
  5
37
330
5
100
AcDbSymbolTableRecord
100
AcDbLinetypeTableRecord
  2
DASHEDTINY
 70
    0
  3
Dashed (.15x) _ _ _ _ _ _ _ _ _ _ _ _ _ _ _ _ _
 72
   65
 73
    2
 40
2.8575
 49
1.905
 74
    0
 49
-0.9525
 74
    0
  0
LTYPE
  5
38
330
5
100
AcDbSymbolTableRecord
100
AcDbLinetypeTableRecord
  2
DASHED2
 70
    0
  3
Dashed (.5x) _ _ _ _ _ _ _ _ _ _ _ _ _ _ _ _ _
 72
   65
 73
    2
 40
9.524999999999999
 49
6.35
 74
    0
 49
-3.175
 74
    0
  0
LTYPE
  5
39
330
5
100
AcDbSymbolTableRecord
100
AcDbLinetypeTableRecord
  2
DASHEDX2
 70
    0
  3
Dashed (2x) ____  ____  ____  ____  ____  ___
 72
   65
 73
    2
 40
38.09999999999999
 49
25.4
 74
    0
 49
-12.7
 74
    0
  0
LTYPE
  5
3A
330
5
100
AcDbSymbolTableRecord
100
AcDbLinetypeTableRecord
  2
DASHDOT
 70
    0
  3
Dash dot __ . __ . __ . __ . __ . __ . __ . __
 72
   65
 73
    4
 40
25.4
 49
12.7
 74
    0
 49
-6.35
 74
    0
 49
0
 74
    0
 49
-6.35
 74
    0
  0
LTYPE
  5
3B
330
5
100
AcDbSymbolTableRecord
100
AcDbLinetypeTableRecord
  2
DASHDOTTINY
 70
    0
  3
Dash dot (.15x) _._._._._._._._._._._._._._._.
 72
   65
 73
    4
 40
3.81
 49
1.905
 74
    0
 49
-0.9525
 74
    0
 49
0
 74
    0
 49
-0.9525
 74
    0
  0
LTYPE
  5
3C
330
5
100
AcDbSymbolTableRecord
100
AcDbLinetypeTableRecord
  2
DASHDOT2
 70
    0
  3
Dash dot (.5x) _._._._._._._._._._._._._._._.
 72
   65
 73
    4
 40
12.7
 49
6.35
 74
    0
 49
-3.175
 74
    0
 49
0
 74
    0
 49
-3.175
 74
    0
  0
LTYPE
  5
3D
330
5
100
AcDbSymbolTableRecord
100
AcDbLinetypeTableRecord
  2
DASHDOTX2
 70
    0
  3
Dash dot (2x) ____  .  ____  .  ____  .  ___
 72
   65
 73
    4
 40
50.8
 49
25.4
 74
    0
 49
-12.7
 74
    0
 49
0
 74
    0
 49
-12.7
 74
    0
  0
LTYPE
  5
3E
330
5
100
AcDbSymbolTableRecord
100
AcDbLinetypeTableRecord
  2
DIVIDE
 70
    0
  3
Divide ____ . . ____ . . ____ . . ____ . . ____
 72
   65
 73
    6
 40
31.75
 49
12.7
 74
    0
 49
-6.35
 74
    0
 49
0
 74
    0
 49
-6.35
 74
    0
 49
0
 74
    0
 49
-6.35
 74
    0
  0
LTYPE
  5
3F
330
5
100
AcDbSymbolTableRecord
100
AcDbLinetypeTableRecord
  2
DIVIDETINY
 70
    0
  3
Divide (.15x) __..__..__..__..__..__..__..__.._
 72
   65
 73
    6
 40
4.7625
 49
1.905
 74
    0
 49
-0.9525
 74
    0
 49
0
 74
    0
 49
-0.9525
 74
    0
 49
0
 74
    0
 49
-0.9525
 74
    0
  0
LTYPE
  5
40
330
5
100
AcDbSymbolTableRecord
100
AcDbLinetypeTableRecord
  2
DIVIDE2
 70
    0
  3
Divide (.5x) __..__..__..__..__..__..__..__.._
 72
   65
 73
    6
 40
15.875
 49
6.35
 74
    0
 49
-3.175
 74
    0
 49
0
 74
    0
 49
-3.175
 74
    0
 49
0
 74
    0
 49
-3.175
 74
    0
  0
LTYPE
  5
41
330
5
100
AcDbSymbolTableRecord
100
AcDbLinetypeTableRecord
  2
DIVIDEX2
 70
    0
  3
Divide (2x) ________  .  .  ________  .  .  _
 72
   65
 73
    6
 40
63.5
 49
25.4
 74
    0
 49
-12.7
 74
    0
 49
0
 74
    0
 49
-12.7
 74
    0
 49
0
 74
    0
 49
-12.7
 74
    0
  0
LTYPE
  5
42
330
5
100
AcDbSymbolTableRecord
100
AcDbLinetypeTableRecord
  2
BORDER
 70
    0
  3
Border __ __ . __ __ . __ __ . __ __ . __ __ .
 72
   65
 73
    6
 40
44.45
 49
12.7
 74
    0
 49
-6.35
 74
    0
 49
12.7
 74
    0
 49
-6.35
 74
    0
 49
0
 74
    0
 49
-6.35
 74
    0
  0
LTYPE
  5
43
330
5
100
AcDbSymbolTableRecord
100
AcDbLinetypeTableRecord
  2
BORDERTINY
 70
    0
  3
Border (.15x) __.__.__.__.__.__.__.__.__.__.__.
 72
   65
 73
    6
 40
6.6675
 49
1.905
 74
    0
 49
-0.9525
 74
    0
 49
1.905
 74
    0
 49
-0.9525
 74
    0
 49
0
 74
    0
 49
-0.9525
 74
    0
  0
LTYPE
  5
44
330
5
100
AcDbSymbolTableRecord
100
AcDbLinetypeTableRecord
  2
BORDER2
 70
    0
  3
Border (.5x) __.__.__.__.__.__.__.__.__.__.__.
 72
   65
 73
    6
 40
22.225
 49
6.35
 74
    0
 49
-3.175
 74
    0
 49
6.35
 74
    0
 49
-3.175
 74
    0
 49
0
 74
    0
 49
-3.175
 74
    0
  0
LTYPE
  5
45
330
5
100
AcDbSymbolTableRecord
100
AcDbLinetypeTableRecord
  2
BORDERX2
 70
    0
  3
Border (2x) ____  ____  .  ____  ____  .  ___
 72
   65
 73
    6
 40
88.89999999999999
 49
25.4
 74
    0
 49
-12.7
 74
    0
 49
25.4
 74
    0
 49
-12.7
 74
    0
 49
0
 74
    0
 49
-12.7
 74
    0
  0
LTYPE
  5
46
330
5
100
AcDbSymbolTableRecord
100
AcDbLinetypeTableRecord
  2
CENTER
 70
    0
  3
Center ____ _ ____ _ ____ _ ____ _ ____ _ ____
 72
   65
 73
    4
 40
50.8
 49
31.75
 74
    0
 49
-6.35
 74
    0
 49
6.35
 74
    0
 49
-6.35
 74
    0
  0
LTYPE
  5
47
330
5
100
AcDbSymbolTableRecord
100
AcDbLinetypeTableRecord
  2
CENTERTINY
 70
    0
  3
Center (.15x) ___ _ ___ _ ___ _ ___ _ ___ _ ___
 72
   65
 73
    4
 40
7.619999999999999
 49
4.7625
 74
    0
 49
-0.9525
 74
    0
 49
0.9525
 74
    0
 49
-0.9525
 74
    0
  0
LTYPE
  5
48
330
5
100
AcDbSymbolTableRecord
100
AcDbLinetypeTableRecord
  2
CENTER2
 70
    0
  3
Center (.5x) ___ _ ___ _ ___ _ ___ _ ___ _ ___
 72
   65
 73
    4
 40
28.575
 49
19.05
 74
    0
 49
-3.175
 74
    0
 49
3.175
 74
    0
 49
-3.175
 74
    0
  0
LTYPE
  5
49
330
5
100
AcDbSymbolTableRecord
100
AcDbLinetypeTableRecord
  2
CENTERX2
 70
    0
  3
Center (2x) ________  __  ________  __  _____
 72
   65
 73
    4
 40
101.6
 49
63.5
 74
    0
 49
-12.7
 74
    0
 49
12.7
 74
    0
 49
-12.7
 74
    0
  0
ENDTAB
  0
TABLE
  2
LAYER
  5
2
330
0
100
AcDbSymbolTable
 70
    1
  0
LAYER
  5
10
330
2
100
AcDbSymbolTableRecord
100
AcDbLayerTableRecord
  2
0
 70
    0
 62
    7
  6
CONTINUOUS
370
   -3
390
F
  0
LAYER
  5
4A
330
2
100
AcDbSymbolTableRecord
100
AcDbLayerTableRecord
  2
height_-0.1
 70
    0
 62
    7
  6
CONTINUOUS
370
    0
390
F
  0
LAYER
  5
4B
330
2
100
AcDbSymbolTableRecord
100
AcDbLayerTableRecord
  2
height_-0.5
 70
    0
 62
    7
  6
CONTINUOUS
370
    0
390
F
  0
ENDTAB
  0
TABLE
  2
STYLE
  5
3
330
0
100
AcDbSymbolTable
 70
    3
  0
STYLE
  5
4C
330
2
100
AcDbSymbolTableRecord
100
AcDbTextStyleTableRecord
  2
Standard
 70
    0
 40
0
 41
1
 50
0
 71
    0
 42
1
  3
txt
  4

  0
ENDTAB
  0
TABLE
  2
VIEW
  5
6
330
0
100
AcDbSymbolTable
 70
    0
  0
ENDTAB
  0
TABLE
  2
UCS
  5
7
330
0
100
AcDbSymbolTable
 70
    0
  0
ENDTAB
  0
TABLE
  2
APPID
  5
9
330
0
100
AcDbSymbolTable
 70
    1
  0
APPID
  5
12
330
9
100
AcDbSymbolTableRecord
100
AcDbRegAppTableRecord
  2
ACAD
 70
    0
  0
APPID
  5
4D
330
9
100
AcDbSymbolTableRecord
100
AcDbRegAppTableRecord
  2
LibreCad
 70
    0
  0
ENDTAB
  0
TABLE
  2
DIMSTYLE
  5
A
330
0
100
AcDbSymbolTable
 70
    1
100
AcDbDimStyleTable
 71
    1
  0
DIMSTYLE
105
4E
330
A
100
AcDbSymbolTableRecord
100
AcDbDimStyleTableRecord
  2
Standard
 70
    0
 40
2.5
 41
2.5
 42
0.625
 43
0.38
 44
1.25
 45
0
 46
0
 47
0
 48
0
 49
1
140
2.5
141
0.09
142
0
143
25.4
144
1
145
0
146
1
147
0.625
148
0
 71
    0
 72
    0
 73
    0
 74
    1
 75
    0
 76
    0
 77
    0
 78
    8
 79
    0
170
    0
171
    2
172
    0
173
    0
174
    0
175
    0
176
    0
177
    0
178
    0
179
    0
271
    4
272
    4
273
    2
274
    2
275
    0
276
    0
277
    2
278
   44
279
    0
280
    0
281
    0
282
    0
283
    1
284
    0
285
    0
286
    0
288
    0
289
    3
340
STANDARD
341

371
   -2
372
   -2
  0
ENDTAB
  0
TABLE
  2
BLOCK_RECORD
  5
1
330
0
100
AcDbSymbolTable
 70
    2
  0
BLOCK_RECORD
  5
1F
330
1
100
AcDbSymbolTableRecord
100
AcDbBlockTableRecord
  2
*Model_Space
 70
    0
280
    1
281
    0
  0
BLOCK_RECORD
  5
1E
330
1
100
AcDbSymbolTableRecord
100
AcDbBlockTableRecord
  2
*Paper_Space
 70
    0
280
    1
281
    0
  0
ENDTAB
  0
ENDSEC
  0
SECTION
  2
BLOCKS
  0
BLOCK
  5
20
330
1F
100
AcDbEntity
  8
0
100
AcDbBlockBegin
  2
*Model_Space
 70
    0
 10
0
 20
0
 30
0
  3
*Model_Space
  1

  0
ENDBLK
  5
21
330
1F
100
AcDbEntity
  8
0
100
AcDbBlockEnd
  0
BLOCK
  5
1C
330
1B
100
AcDbEntity
  8
0
100
AcDbBlockBegin
  2
*Paper_Space
 70
    0
 10
0
 20
0
 30
0
  3
*Paper_Space
  1

  0
ENDBLK
  5
1D
330
1F
100
AcDbEntity
  8
0
100
AcDbBlockEnd
  0
ENDSEC
  0
SECTION
  2
ENTITIES
  0
LINE
  5
4F
100
AcDbEntity
  8
height_-0.1
  6
ByLayer
 62
  256
370
   -1
100
AcDbLine
 10
19.67960516499288
 20
108.3990473457679
 11
19.67960516499288
 21
110.3990473457679
  0
LINE
  5
50
100
AcDbEntity
  8
height_-0.1
  6
ByLayer
 62
  256
370
   -1
100
AcDbLine
 10
19.67960516499288
 20
110.3990473457679
 11
20.34627183165955
 21
109.2879362346568
  0
LINE
  5
51
100
AcDbEntity
  8
height_-0.1
  6
ByLayer
 62
  256
370
   -1
100
AcDbLine
 10
20.34627183165955
 20
109.2879362346568
 11
21.01293849832621
 21
110.3990473457679
  0
LINE
  5
52
100
AcDbEntity
  8
height_-0.1
  6
ByLayer
 62
  256
370
   -1
100
AcDbLine
 10
21.01293849832621
 20
110.3990473457679
 11
21.01293849832621
 21
108.3990473457679
  0
LINE
  5
53
100
AcDbEntity
  8
height_-0.1
  6
ByLayer
 62
  256
370
   -1
100
AcDbLine
 10
21.67960516499288
 20
108.3990473457679
 11
21.67960516499288
 21
110.3990473457679
  0
LINE
  5
54
100
AcDbEntity
  8
height_-0.1
  6
ByLayer
 62
  256
370
   -1
100
AcDbLine
 10
22.34627183165955
 20
108.3990473457679
 11
22.34627183165955
 21
110.3990473457679
  0
LINE
  5
55
100
AcDbEntity
  8
height_-0.1
  6
ByLayer
 62
  256
370
   -1
100
AcDbLine
 10
22.34627183165955
 20
110.3990473457679
 11
23.45738294277066
 21
108.3990473457679
  0
LINE
  5
56
100
AcDbEntity
  8
height_-0.1
  6
ByLayer
 62
  256
370
   -1
100
AcDbLine
 10
23.45738294277066
 20
108.3990473457679
 11
23.45738294277066
 21
110.3990473457679
  0
LINE
  5
57
100
AcDbEntity
  8
height_-0.1
  6
ByLayer
 62
  256
370
   -1
100
AcDbLine
 10
31.04732740315647
 20
108.5212809182212
 11
31.04732740315647
 21
110.5212809182212
  0
LINE
  5
58
100
AcDbEntity
  8
height_-0.1
  6
ByLayer
 62
  256
370
   -1
100
AcDbLine
 10
31.04732740315647
 20
110.5212809182212
 11
31.71399406982313
 21
109.4101698071101
  0
LINE
  5
59
100
AcDbEntity
  8
height_-0.1
  6
ByLayer
 62
  256
370
   -1
100
AcDbLine
 10
31.71399406982313
 20
109.4101698071101
 11
32.3806607364898
 21
110.5212809182212
  0
LINE
  5
5A
100
AcDbEntity
  8
height_-0.1
  6
ByLayer
 62
  256
370
   -1
100
AcDbLine
 10
32.3806607364898
 20
110.5212809182212
 11
32.3806607364898
 21
108.5212809182212
  0
LINE
  5
5B
100
AcDbEntity
  8
height_-0.1
  6
ByLayer
 62
  256
370
   -1
100
AcDbLine
 10
33.23250518093425
 20
109.0768364737768
 11
34.1954607364898
 21
109.0768364737768
  0
LINE
  5
5C
100
AcDbEntity
  8
height_-0.1
  6
ByLayer
 62
  256
370
   -1
100
AcDbLine
 10
33.04732740315647
 20
108.5212809182212
 11
33.71399406982313
 21
110.5212809182212
  0
LINE
  5
5D
100
AcDbEntity
  8
height_-0.1
  6
ByLayer
 62
  256
370
   -1
100
AcDbLine
 10
33.71399406982313
 20
110.5212809182212
 11
34.3806607364898
 21
108.5212809182212
  0
LINE
  5
5E
100
AcDbEntity
  8
height_-0.1
  6
ByLayer
 62
  256
370
   -1
100
AcDbLine
 10
35.04732740315647
 20
108.5212809182212
 11
36.3806607364898
 21
110.5212809182212
  0
LINE
  5
5F
100
AcDbEntity
  8
height_-0.1
  6
ByLayer
 62
  256
370
   -1
100
AcDbLine
 10
35.04732740315647
 20
110.5212809182212
 11
36.3806607364898
 21
108.5212809182212
  0
LINE
  5
60
100
AcDbEntity
  8
height_-0.5
  6
ByLayer
 62
  256
370
   -1
100
AcDbLine
 10
71.13845614880177
 20
8.14903015171884
 11
71.13845614880177
 21
10.05646245438832
  0
LINE
  5
61
100
AcDbEntity
  8
height_-0.5
  6
ByLayer
 62
  256
370
   -1
100
AcDbLine
 10
71.13845614880177
 20
10.05646245438832
 11
48.67368052286437
 21
10.05646245438832
  0
LINE
  5
62
100
AcDbEntity
  8
height_-0.5
  6
ByLayer
 62
  256
370
   -1
100
AcDbLine
 10
48.67368052286437
 20
10.05646245438832
 11
48.67368052286437
 21
8.14903015171884
  0
LINE
  5
63
100
AcDbEntity
  8
height_-0.5
  6
ByLayer
 62
  256
370
   -1
100
AcDbLine
 10
42.41704345160548
 20
8.14903015171884
 11
42.41704345160548
 21
10.05646245438832
  0
LINE
  5
64
100
AcDbEntity
  8
height_-0.5
  6
ByLayer
 62
  256
370
   -1
100
AcDbLine
 10
42.41704345160548
 20
10.05646245438832
 11
19.96212079743384
 21
10.05646245438832
  0
LINE
  5
65
100
AcDbEntity
  8
height_-0.5
  6
ByLayer
 62
  256
370
   -1
100
AcDbLine
 10
19.96212079743384
 20
10.05646245438832
 11
19.96212079743384
 21
8.14903015171884
  0
LINE
  5
66
100
AcDbEntity
  8
height_-0.5
  6
ByLayer
 62
  256
370
   -1
100
AcDbLine
 10
12.51327414251776
 20
112.1490301517189
 11
12.51327414251776
 21
112.1490301517189
  0
LINE
  5
67
100
AcDbEntity
  8
height_-0.5
  6
ByLayer
 62
  256
370
   -1
100
AcDbLine
 10
78.58730280371785
 20
112.1490301517189
 11
78.71365043959307
 21
108.5293202461302
  0
LINE
  5
68
100
AcDbEntity
  8
height_-0.5
  6
ByLayer
 62
  256
370
   -1
100
AcDbLine
 10
78.8277065833452
 20
104.9624598775591
 11
78.92960617548691
 21
101.4448085505474
  0
LINE
  5
69
100
AcDbEntity
  8
height_-0.5
  6
ByLayer
 62
  256
370
   -1
100
AcDbLine
 10
78.92960617548691
 20
101.4448085505474
 11
79.01948415640773
 21
97.97272576951221
  0
LINE
  5
6A
100
AcDbEntity
  8
height_-0.5
  6
ByLayer
 62
  256
370
   -1
100
AcDbLine
 10
79.01948415640773
 20
97.97272576951221
 11
79.09747546674348
 21
94.54257103887076
  0
LINE
  5
6B
100
AcDbEntity
  8
height_-0.5
  6
ByLayer
 62
  256
370
   -1
100
AcDbLine
 10
79.16371504688372
 20
91.15070386304015
 11
79.21833783734112
 21
87.79348374631267
  0
LINE
  5
6C
100
AcDbEntity
  8
height_-0.5
  6
ByLayer
 62
  256
370
   -1
100
AcDbLine
 10
79.21833783734112
 20
87.79348374631267
 11
79.26147877875151
 21
84.46727019310543
  0
LINE
  5
6D
100
AcDbEntity
  8
height_-0.5
  6
ByLayer
 62
  256
370
   -1
100
AcDbLine
 10
79.26147877875151
 20
84.46727019310543
 11
79.29327281138127
 21
81.16842270796045
  0
LINE
  5
6E
100
AcDbEntity
  8
height_-0.5
  6
ByLayer
 62
  256
370
   -1
100
AcDbLine
 10
79.29327281138127
 20
81.16842270796045
 11
79.31385487598941
 21
77.89330079504515
  0
LINE
  5
6F
100
AcDbEntity
  8
height_-0.5
  6
ByLayer
 62
  256
370
   -1
100
AcDbLine
 10
79.32335991296542
 20
74.63826395915116
 11
79.32192286282199
 21
71.39967170432111
  0
LINE
  5
70
100
AcDbEntity
  8
height_-0.5
  6
ByLayer
 62
  256
370
   -1
100
AcDbLine
 10
79.32192286282199
 20
71.39967170432111
 11
79.30967866594868
 21
68.17388353509699
  0
LINE
  5
71
100
AcDbEntity
  8
height_-0.5
  6
ByLayer
 62
  256
370
   -1
100
AcDbLine
 10
79.30967866594868
 20
68.17388353509699
 11
79.28676226298128
 21
64.95725895589592
  0
LINE
  5
72
100
AcDbEntity
  8
height_-0.5
  6
ByLayer
 62
  256
370
   -1
100
AcDbLine
 10
79.28676226298128
 20
64.95725895589592
 11
79.25330859443253
 21
61.74615747113502
  0
LINE
  5
73
100
AcDbEntity
  8
height_-0.5
  6
ByLayer
 62
  256
370
   -1
100
AcDbLine
 10
79.25330859443253
 20
61.74615747113502
 11
79.20945260069189
 21
58.53693858523143
  0
LINE
  5
74
100
AcDbEntity
  8
height_-0.5
  6
ByLayer
 62
  256
370
   -1
100
AcDbLine
 10
79.20945260069189
 20
58.53693858523143
 11
79.1553292222721
 21
55.32596180247744
  0
LINE
  5
75
100
AcDbEntity
  8
height_-0.5
  6
ByLayer
 62
  256
370
   -1
100
AcDbLine
 10
79.09107339980895
 20
52.10958662741503
 11
79.016820073692
 21
48.88417256446131
  0
LINE
  5
76
100
AcDbEntity
  8
height_-0.5
  6
ByLayer
 62
  256
370
   -1
100
AcDbLine
 10
79.016820073692
 20
48.88417256446131
 11
78.93270418443394
 21
45.64607911790859
  0
LINE
  5
77
100
AcDbEntity
  8
height_-0.5
  6
ByLayer
 62
  256
370
   -1
100
AcDbLine
 10
78.93270418443394
 20
45.64607911790859
 11
78.83886067254743
 21
42.391665792174
  0
LINE
  5
78
100
AcDbEntity
  8
height_-0.5
  6
ByLayer
 62
  256
370
   -1
100
AcDbLine
 10
78.83886067254743
 20
42.391665792174
 11
78.73542447866832
 21
39.11729209167468
  0
LINE
  5
79
100
AcDbEntity
  8
height_-0.5
  6
ByLayer
 62
  256
370
   -1
100
AcDbLine
 10
78.62253054306296
 20
35.81931752095257
 11
78.50031380624404
 21
32.49410158417516
  0
LINE
  5
7A
100
AcDbEntity
  8
height_-0.5
  6
ByLayer
 62
  256
370
   -1
100
AcDbLine
 10
78.50031380624404
 20
32.49410158417516
 11
78.36890920897058
 21
29.13800378600922
  0
LINE
  5
7B
100
AcDbEntity
  8
height_-0.5
  6
ByLayer
 62
  256
370
   -1
100
AcDbLine
 10
78.36890920897058
 20
29.13800378600922
 11
78.22845169150892
 21
25.74738363074708
  0
LINE
  5
7C
100
AcDbEntity
  8
height_-0.5
  6
ByLayer
 62
  256
370
   -1
100
AcDbLine
 10
78.22845169150892
 20
25.74738363074708
 11
78.07907619449492
 21
22.31860062268101
  0
LINE
  5
7D
100
AcDbEntity
  8
height_-0.5
  6
ByLayer
 62
  256
370
   -1
100
AcDbLine
 10
78.07907619449492
 20
22.31860062268101
 11
77.9209176583181
 21
18.84801426635299
  0
LINE
  5
7E
100
AcDbEntity
  8
height_-0.5
  6
ByLayer
 62
  256
370
   -1
100
AcDbLine
 10
77.75411102349113
 20
15.33198406618014
 11
77.57879123052669
 21
11.76686952647974
  0
LINE
  5
7F
100
AcDbEntity
  8
height_-0.5
  6
ByLayer
 62
  256
370
   -1
100
AcDbLine
 10
77.57879123052669
 20
11.76686952647974
 11
77.39509322006066
 21
8.14903015171884
  0
LINE
  5
80
100
AcDbEntity
  8
height_-0.5
  6
ByLayer
 62
  256
370
   -1
100
AcDbLine
 10
13.70548372617497
 20
8.14903015171884
 11
13.52175594938857
 21
11.76686952647974
  0
LINE
  5
81
100
AcDbEntity
  8
height_-0.5
  6
ByLayer
 62
  256
370
   -1
100
AcDbLine
 10
13.52175594938857
 20
11.76686952647974
 11
13.34635082648643
 21
15.33198406618014
  0
LINE
  5
82
100
AcDbEntity
  8
height_-0.5
  6
ByLayer
 62
  256
370
   -1
100
AcDbLine
 10
13.34635082648643
 20
15.33198406618014
 11
13.17940925114678
 21
18.84801426635299
  0
LINE
  5
83
100
AcDbEntity
  8
height_-0.5
  6
ByLayer
 62
  256
370
   -1
100
AcDbLine
 10
13.02107211729416
 20
22.31860062268101
 11
12.87148031848363
 21
25.74738363074708
  0
LINE
  5
84
100
AcDbEntity
  8
height_-0.5
  6
ByLayer
 62
  256
370
   -1
100
AcDbLine
 10
12.87148031848363
 20
25.74738363074708
 11
12.73077474863974
 21
29.13800378600922
  0
LINE
  5
85
100
AcDbEntity
  8
height_-0.5
  6
ByLayer
 62
  256
370
   -1
100
AcDbLine
 10
12.73077474863974
 20
29.13800378600922
 11
12.59909630144072
 21
32.49410158417516
  0
LINE
  5
86
100
AcDbEntity
  8
height_-0.5
  6
ByLayer
 62
  256
370
   -1
100
AcDbLine
 10
12.59909630144072
 20
32.49410158417516
 11
12.47658587068796
 21
35.81931752095257
  0
LINE
  5
87
100
AcDbEntity
  8
height_-0.5
  6
ByLayer
 62
  256
370
   -1
100
AcDbLine
 10
12.47658587068796
 20
35.81931752095257
 11
12.36338435018283
 21
39.11729209167468
  0
LINE
  5
88
100
AcDbEntity
  8
height_-0.5
  6
ByLayer
 62
  256
370
   -1
100
AcDbLine
 10
12.25963263352966
 20
42.391665792174
 11
12.16547161461606
 21
45.64607911790859
  0
LINE
  5
89
100
AcDbEntity
  8
height_-0.5
  6
ByLayer
 62
  256
370
   -1
100
AcDbLine
 10
12.16547161461606
 20
45.64607911790859
 11
12.0810421871572
 21
48.88417256446131
  0
LINE
  5
8A
100
AcDbEntity
  8
height_-0.5
  6
ByLayer
 62
  256
370
   -1
100
AcDbLine
 10
12.0810421871572
 20
48.88417256446131
 11
12.00648524491751
 21
52.10958662741503
  0
LINE
  5
8B
100
AcDbEntity
  8
height_-0.5
  6
ByLayer
 62
  256
370
   -1
100
AcDbLine
 10
12.00648524491751
 20
52.10958662741503
 11
11.94194168164911
 21
55.32596180247744
  0
LINE
  5
8C
100
AcDbEntity
  8
height_-0.5
  6
ByLayer
 62
  256
370
   -1
100
AcDbLine
 10
11.94194168164911
 20
55.32596180247744
 11
11.88755239112877
 21
58.53693858523143
  0
LINE
  5
8D
100
AcDbEntity
  8
height_-0.5
  6
ByLayer
 62
  256
370
   -1
100
AcDbLine
 10
11.88755239112877
 20
58.53693858523143
 11
11.84345826710859
 21
61.74615747113502
  0
LINE
  5
8E
100
AcDbEntity
  8
height_-0.5
  6
ByLayer
 62
  256
370
   -1
100
AcDbLine
 10
11.8098002033407
 20
64.95725895589592
 11
11.78671909358955
 21
68.17388353509699
  0
LINE
  5
8F
100
AcDbEntity
  8
height_-0.5
  6
ByLayer
 62
  256
370
   -1
100
AcDbLine
 10
11.78671909358955
 20
68.17388353509699
 11
11.77435583160724
 21
71.39967170432111
  0
LINE
  5
90
100
AcDbEntity
  8
height_-0.5
  6
ByLayer
 62
  256
370
   -1
100
AcDbLine
 10
11.77435583160724
 20
71.39967170432111
 11
11.77285131117053
 21
74.63826395915116
  0
LINE
  5
91
100
AcDbEntity
  8
height_-0.5
  6
ByLayer
 62
  256
370
   -1
100
AcDbLine
 10
11.77285131117053
 20
74.63826395915116
 11
11.78234642601923
 21
77.89330079504515
  0
LINE
  5
92
100
AcDbEntity
  8
height_-0.5
  6
ByLayer
 62
  256
370
   -1
100
AcDbLine
 10
11.80298206991778
 20
81.16842270796045
 11
11.8348991366183
 21
84.46727019310543
  0
LINE
  5
93
100
AcDbEntity
  8
height_-0.5
  6
ByLayer
 62
  256
370
   -1
100
AcDbLine
 10
11.8348991366183
 20
84.46727019310543
 11
11.87823851989753
 21
87.79348374631267
  0
LINE
  5
94
100
AcDbEntity
  8
height_-0.5
  6
ByLayer
 62
  256
370
   -1
100
AcDbLine
 10
11.87823851989753
 20
87.79348374631267
 11
11.9331411135076
 21
91.15070386304015
  0
LINE
  5
95
100
AcDbEntity
  8
height_-0.5
  6
ByLayer
 62
  256
370
   -1
100
AcDbLine
 10
11.9331411135076
 20
91.15070386304015
 11
11.99974781120064
 21
94.54257103887076
  0
LINE
  5
96
100
AcDbEntity
  8
height_-0.5
  6
ByLayer
 62
  256
370
   -1
100
AcDbLine
 10
12.07819950672876
 20
97.97272576951221
 11
12.16863709388103
 21
101.4448085505474
  0
LINE
  5
97
100
AcDbEntity
  8
height_-0.5
  6
ByLayer
 62
  256
370
   -1
100
AcDbLine
 10
12.16863709388103
 20
101.4448085505474
 11
12.27120146638494
 21
104.9624598775591
  0
LINE
  5
98
100
AcDbEntity
  8
height_-0.5
  6
ByLayer
 62
  256
370
   -1
100
AcDbLine
 10
12.38603351801725
 20
108.5293202461302
 11
12.51327414251776
 21
112.1490301517189
  0
LINE
  5
99
100
AcDbEntity
  8
height_-0.5
  6
ByLayer
 62
  256
370
   -1
100
AcDbLine
 10
12.51327414251776
 20
112.1490301517189
 11
45.55028847311781
 21
112.1490301517189
  0
LINE
  5
9A
100
AcDbEntity
  8
height_-0.5
  6
ByLayer
 62
  256
370
   -1
100
AcDbLine
 10
12.51327414251776
 20
112.1490301517189
 11
50.00304347350097
 21
112.1490301517189
  0
LINE
  5
9B
100
AcDbEntity
  8
height_-0.5
  6
ByLayer
 62
  256
370
   -1
100
AcDbLine
 10
78.58730280371785
 20
112.1490301517189
 11
52.23122344740429
 21
112.1490301517189
  0
LINE
  5
9C
100
AcDbEntity
  8
height_-0.5
  6
ByLayer
 62
  256
370
   -1
100
AcDbLine
 10
42.41704345160548
 20
8.14903015171884
 11
48.67368052286437
 21
8.14903015171884
  0
LINE
  5
9D
100
AcDbEntity
  8
height_-0.5
  6
ByLayer
 62
  256
370
   -1
100
AcDbLine
 10
12.07819950672876
 20
97.97272576951221
 11
11.99974781120064
 21
94.54257103887076
  0
LINE
  5
9E
100
AcDbEntity
  8
height_-0.5
  6
ByLayer
 62
  256
370
   -1
100
AcDbLine
 10
11.80298206991778
 20
81.16842270796045
 11
11.78234642601923
 21
77.89330079504515
  0
LINE
  5
9F
100
AcDbEntity
  8
height_-0.5
  6
ByLayer
 62
  256
370
   -1
100
AcDbLine
 10
11.8098002033407
 20
64.95725895589592
 11
11.84345826710859
 21
61.74615747113502
  0
LINE
  5
A0
100
AcDbEntity
  8
height_-0.5
  6
ByLayer
 62
  256
370
   -1
100
AcDbLine
 10
12.25963263352966
 20
42.391665792174
 11
12.36338435018283
 21
39.11729209167468
  0
LINE
  5
A1
100
AcDbEntity
  8
height_-0.5
  6
ByLayer
 62
  256
370
   -1
100
AcDbLine
 10
13.70548372617497
 20
8.14903015171884
 11
19.96212079743384
 21
8.14903015171884
  0
LINE
  5
A2
100
AcDbEntity
  8
height_-0.5
  6
ByLayer
 62
  256
370
   -1
100
AcDbLine
 10
71.13845614880177
 20
8.14903015171884
 11
77.39509322006066
 21
8.14903015171884
  0
LINE
  5
A3
100
AcDbEntity
  8
height_-0.5
  6
ByLayer
 62
  256
370
   -1
100
AcDbLine
 10
78.62253054306296
 20
35.81931752095257
 11
78.73542447866832
 21
39.11729209167468
  0
LINE
  5
A4
100
AcDbEntity
  8
height_-0.5
  6
ByLayer
 62
  256
370
   -1
100
AcDbLine
 10
79.09107339980895
 20
52.10958662741503
 11
79.1553292222721
 21
55.32596180247744
  0
LINE
  5
A5
100
AcDbEntity
  8
height_-0.5
  6
ByLayer
 62
  256
370
   -1
100
AcDbLine
 10
79.32335991296542
 20
74.63826395915116
 11
79.31385487598941
 21
77.89330079504515
  0
LINE
  5
A6
100
AcDbEntity
  8
height_-0.5
  6
ByLayer
 62
  256
370
   -1
100
AcDbLine
 10
79.16371504688372
 20
91.15070386304015
 11
79.09747546674348
 21
94.54257103887076
  0
LINE
  5
A7
100
AcDbEntity
  8
height_-0.5
  6
ByLayer
 62
  256
370
   -1
100
AcDbLine
 10
52.23122344740429
 20
112.1490301517189
 11
50.00304347350097
 21
112.1490301517189
  0
ARC
  5
A8
100
AcDbEntity
  8
height_-0.5
  6
ByLayer
 62
  256
370
   -1
100
AcDbCircle
 10
18.39345105809969
 20
105.6953716151335
 40
1
100
AcDbArc
 50
90
 51
180
  0
ARC
  5
A9
100
AcDbEntity
  8
height_-0.5
  6
ByLayer
 62
  256
370
   -1
100
AcDbCircle
 10
24.9275040232968
 20
105.6953716151335
 40
1
100
AcDbArc
 50
0
 51
90
  0
ARC
  5
AA
100
AcDbEntity
  8
height_-0.5
  6
ByLayer
 62
  256
370
   -1
100
AcDbCircle
 10
24.9275040232968
 20
99.8065911273286
 40
1
100
AcDbArc
 50
270
 51
0
  0
ARC
  5
AB
100
AcDbEntity
  8
height_-0.5
  6
ByLayer
 62
  256
370
   -1
100
AcDbCircle
 10
18.39345105809969
 20
99.8065911273286
 40
1
100
AcDbArc
 50
180
 51
270
  0
LINE
  5
AC
100
AcDbEntity
  8
height_-0.5
  6
ByLayer
 62
  256
370
   -1
100
AcDbLine
 10
18.39345105809969
 20
106.6953716151335
 11
24.9275040232968
 21
106.6953716151335
  0
LINE
  5
AD
100
AcDbEntity
  8
height_-0.5
  6
ByLayer
 62
  256
370
   -1
100
AcDbLine
 10
25.9275040232968
 20
105.6953716151335
 11
25.9275040232968
 21
99.8065911273286
  0
LINE
  5
AE
100
AcDbEntity
  8
height_-0.5
  6
ByLayer
 62
  256
370
   -1
100
AcDbLine
 10
24.9275040232968
 20
98.8065911273286
 11
18.39345105809969
 21
98.8065911273286
  0
LINE
  5
AF
100
AcDbEntity
  8
height_-0.5
  6
ByLayer
 62
  256
370
   -1
100
AcDbLine
 10
17.39345105809969
 20
99.8065911273286
 11
17.39345105809969
 21
105.6953716151335
  0
ARC
  5
B0
100
AcDbEntity
  8
height_-0.5
  6
ByLayer
 62
  256
370
   -1
100
AcDbCircle
 10
30.43122078320178
 20
105.6953716151335
 40
1
100
AcDbArc
 50
90
 51
180
  0
ARC
  5
B1
100
AcDbEntity
  8
height_-0.5
  6
ByLayer
 62
  256
370
   -1
100
AcDbCircle
 10
36.96527374839889
 20
105.6953716151335
 40
1
100
AcDbArc
 50
0
 51
90
  0
ARC
  5
B2
100
AcDbEntity
  8
height_-0.5
  6
ByLayer
 62
  256
370
   -1
100
AcDbCircle
 10
36.96527374839889
 20
99.8065911273286
 40
1
100
AcDbArc
 50
270
 51
0
  0
ARC
  5
B3
100
AcDbEntity
  8
height_-0.5
  6
ByLayer
 62
  256
370
   -1
100
AcDbCircle
 10
30.43122078320178
 20
99.8065911273286
 40
1
100
AcDbArc
 50
180
 51
270
  0
LINE
  5
B4
100
AcDbEntity
  8
height_-0.5
  6
ByLayer
 62
  256
370
   -1
100
AcDbLine
 10
30.43122078320178
 20
106.6953716151335
 11
36.96527374839889
 21
106.6953716151335
  0
LINE
  5
B5
100
AcDbEntity
  8
height_-0.5
  6
ByLayer
 62
  256
370
   -1
100
AcDbLine
 10
37.96527374839889
 20
105.6953716151335
 11
37.96527374839889
 21
99.8065911273286
  0
LINE
  5
B6
100
AcDbEntity
  8
height_-0.5
  6
ByLayer
 62
  256
370
   -1
100
AcDbLine
 10
36.96527374839889
 20
98.8065911273286
 11
30.43122078320178
 21
98.8065911273286
  0
LINE
  5
B7
100
AcDbEntity
  8
height_-0.5
  6
ByLayer
 62
  256
370
   -1
100
AcDbLine
 10
29.43122078320178
 20
99.8065911273286
 11
29.43122078320178
 21
105.6953716151335
  0
ARC
  5
B8
100
AcDbEntity
  8
height_-0.5
  6
ByLayer
 62
  256
370
   -1
100
AcDbCircle
 10
42.46899050830386
 20
105.6953716151335
 40
1
100
AcDbArc
 50
90
 51
180
  0
ARC
  5
B9
100
AcDbEntity
  8
height_-0.5
  6
ByLayer
 62
  256
370
   -1
100
AcDbCircle
 10
49.00304347350097
 20
105.6953716151335
 40
1
100
AcDbArc
 50
0
 51
90
  0
ARC
  5
BA
100
AcDbEntity
  8
height_-0.5
  6
ByLayer
 62
  256
370
   -1
100
AcDbCircle
 10
49.00304347350097
 20
99.8065911273286
 40
1
100
AcDbArc
 50
270
 51
0
  0
ARC
  5
BB
100
AcDbEntity
  8
height_-0.5
  6
ByLayer
 62
  256
370
   -1
100
AcDbCircle
 10
42.46899050830386
 20
99.8065911273286
 40
1
100
AcDbArc
 50
180
 51
270
  0
LINE
  5
BC
100
AcDbEntity
  8
height_-0.5
  6
ByLayer
 62
  256
370
   -1
100
AcDbLine
 10
42.46899050830386
 20
106.6953716151335
 11
49.00304347350097
 21
106.6953716151335
  0
LINE
  5
BD
100
AcDbEntity
  8
height_-0.5
  6
ByLayer
 62
  256
370
   -1
100
AcDbLine
 10
50.00304347350097
 20
105.6953716151335
 11
50.00304347350097
 21
99.8065911273286
  0
LINE
  5
BE
100
AcDbEntity
  8
height_-0.5
  6
ByLayer
 62
  256
370
   -1
100
AcDbLine
 10
49.00304347350097
 20
98.8065911273286
 11
42.46899050830386
 21
98.8065911273286
  0
LINE
  5
BF
100
AcDbEntity
  8
height_-0.5
  6
ByLayer
 62
  256
370
   -1
100
AcDbLine
 10
41.46899050830386
 20
99.8065911273286
 11
41.46899050830386
 21
105.6953716151335
  0
ARC
  5
C0
100
AcDbEntity
  8
height_-0.5
  6
ByLayer
 62
  256
370
   -1
100
AcDbCircle
 10
54.50676023340596
 20
105.6953716151335
 40
1
100
AcDbArc
 50
90
 51
180
  0
ARC
  5
C1
100
AcDbEntity
  8
height_-0.5
  6
ByLayer
 62
  256
370
   -1
100
AcDbCircle
 10
61.04081319860307
 20
105.6953716151335
 40
1
100
AcDbArc
 50
0
 51
90
  0
ARC
  5
C2
100
AcDbEntity
  8
height_-0.5
  6
ByLayer
 62
  256
370
   -1
100
AcDbCircle
 10
61.04081319860307
 20
99.8065911273286
 40
1
100
AcDbArc
 50
270
 51
0
  0
ARC
  5
C3
100
AcDbEntity
  8
height_-0.5
  6
ByLayer
 62
  256
370
   -1
100
AcDbCircle
 10
54.50676023340596
 20
99.8065911273286
 40
1
100
AcDbArc
 50
180
 51
270
  0
LINE
  5
C4
100
AcDbEntity
  8
height_-0.5
  6
ByLayer
 62
  256
370
   -1
100
AcDbLine
 10
54.50676023340596
 20
106.6953716151335
 11
61.04081319860307
 21
106.6953716151335
  0
LINE
  5
C5
100
AcDbEntity
  8
height_-0.5
  6
ByLayer
 62
  256
370
   -1
100
AcDbLine
 10
62.04081319860307
 20
105.6953716151335
 11
62.04081319860307
 21
99.8065911273286
  0
LINE
  5
C6
100
AcDbEntity
  8
height_-0.5
  6
ByLayer
 62
  256
370
   -1
100
AcDbLine
 10
61.04081319860307
 20
98.8065911273286
 11
54.50676023340596
 21
98.8065911273286
  0
LINE
  5
C7
100
AcDbEntity
  8
height_-0.5
  6
ByLayer
 62
  256
370
   -1
100
AcDbLine
 10
53.50676023340596
 20
99.8065911273286
 11
53.50676023340596
 21
105.6953716151335
  0
ARC
  5
C8
100
AcDbEntity
  8
height_-0.5
  6
ByLayer
 62
  256
370
   -1
100
AcDbCircle
 10
66.54452995850805
 20
105.6953716151335
 40
1
100
AcDbArc
 50
90
 51
180
  0
ARC
  5
C9
100
AcDbEntity
  8
height_-0.5
  6
ByLayer
 62
  256
370
   -1
100
AcDbCircle
 10
73.07858292370517
 20
105.6953716151335
 40
1
100
AcDbArc
 50
0
 51
90
  0
ARC
  5
CA
100
AcDbEntity
  8
height_-0.5
  6
ByLayer
 62
  256
370
   -1
100
AcDbCircle
 10
73.07858292370517
 20
99.8065911273286
 40
1
100
AcDbArc
 50
270
 51
0
  0
ARC
  5
CB
100
AcDbEntity
  8
height_-0.5
  6
ByLayer
 62
  256
370
   -1
100
AcDbCircle
 10
66.54452995850805
 20
99.8065911273286
 40
1
100
AcDbArc
 50
180
 51
270
  0
LINE
  5
CC
100
AcDbEntity
  8
height_-0.5
  6
ByLayer
 62
  256
370
   -1
100
AcDbLine
 10
66.54452995850805
 20
106.6953716151335
 11
73.07858292370517
 21
106.6953716151335
  0
LINE
  5
CD
100
AcDbEntity
  8
height_-0.5
  6
ByLayer
 62
  256
370
   -1
100
AcDbLine
 10
74.07858292370517
 20
105.6953716151335
 11
74.07858292370517
 21
99.8065911273286
  0
LINE
  5
CE
100
AcDbEntity
  8
height_-0.5
  6
ByLayer
 62
  256
370
   -1
100
AcDbLine
 10
73.07858292370517
 20
98.8065911273286
 11
66.54452995850805
 21
98.8065911273286
  0
LINE
  5
CF
100
AcDbEntity
  8
height_-0.5
  6
ByLayer
 62
  256
370
   -1
100
AcDbLine
 10
65.54452995850805
 20
99.8065911273286
 11
65.54452995850805
 21
105.6953716151335
  0
ARC
  5
D0
100
AcDbEntity
  8
height_-0.5
  6
ByLayer
 62
  256
370
   -1
100
AcDbCircle
 10
18.39345105809969
 20
93.51976185903592
 40
1
100
AcDbArc
 50
90
 51
180
  0
ARC
  5
D1
100
AcDbEntity
  8
height_-0.5
  6
ByLayer
 62
  256
370
   -1
100
AcDbCircle
 10
24.92750402329681
 20
93.51976185903592
 40
1
100
AcDbArc
 50
0
 51
90
  0
ARC
  5
D2
100
AcDbEntity
  8
height_-0.5
  6
ByLayer
 62
  256
370
   -1
100
AcDbCircle
 10
24.92750402329681
 20
87.63098137123103
 40
1
100
AcDbArc
 50
270
 51
0
  0
ARC
  5
D3
100
AcDbEntity
  8
height_-0.5
  6
ByLayer
 62
  256
370
   -1
100
AcDbCircle
 10
18.39345105809969
 20
87.63098137123103
 40
1
100
AcDbArc
 50
180
 51
270
  0
LINE
  5
D4
100
AcDbEntity
  8
height_-0.5
  6
ByLayer
 62
  256
370
   -1
100
AcDbLine
 10
18.39345105809969
 20
94.51976185903592
 11
24.92750402329681
 21
94.51976185903592
  0
LINE
  5
D5
100
AcDbEntity
  8
height_-0.5
  6
ByLayer
 62
  256
370
   -1
100
AcDbLine
 10
25.92750402329681
 20
93.51976185903592
 11
25.92750402329681
 21
87.63098137123103
  0
LINE
  5
D6
100
AcDbEntity
  8
height_-0.5
  6
ByLayer
 62
  256
370
   -1
100
AcDbLine
 10
24.92750402329681
 20
86.63098137123103
 11
18.39345105809969
 21
86.63098137123103
  0
LINE
  5
D7
100
AcDbEntity
  8
height_-0.5
  6
ByLayer
 62
  256
370
   -1
100
AcDbLine
 10
17.39345105809969
 20
87.63098137123103
 11
17.39345105809969
 21
93.51976185903592
  0
ARC
  5
D8
100
AcDbEntity
  8
height_-0.5
  6
ByLayer
 62
  256
370
   -1
100
AcDbCircle
 10
30.43122078320178
 20
93.51976185903592
 40
1
100
AcDbArc
 50
90
 51
180
  0
ARC
  5
D9
100
AcDbEntity
  8
height_-0.5
  6
ByLayer
 62
  256
370
   -1
100
AcDbCircle
 10
36.96527374839889
 20
93.51976185903592
 40
1
100
AcDbArc
 50
0
 51
90
  0
ARC
  5
DA
100
AcDbEntity
  8
height_-0.5
  6
ByLayer
 62
  256
370
   -1
100
AcDbCircle
 10
36.96527374839889
 20
87.63098137123103
 40
1
100
AcDbArc
 50
270
 51
0
  0
ARC
  5
DB
100
AcDbEntity
  8
height_-0.5
  6
ByLayer
 62
  256
370
   -1
100
AcDbCircle
 10
30.43122078320178
 20
87.63098137123103
 40
1
100
AcDbArc
 50
180
 51
270
  0
LINE
  5
DC
100
AcDbEntity
  8
height_-0.5
  6
ByLayer
 62
  256
370
   -1
100
AcDbLine
 10
30.43122078320178
 20
94.51976185903592
 11
36.96527374839889
 21
94.51976185903592
  0
LINE
  5
DD
100
AcDbEntity
  8
height_-0.5
  6
ByLayer
 62
  256
370
   -1
100
AcDbLine
 10
37.96527374839889
 20
93.51976185903592
 11
37.96527374839889
 21
87.63098137123103
  0
LINE
  5
DE
100
AcDbEntity
  8
height_-0.5
  6
ByLayer
 62
  256
370
   -1
100
AcDbLine
 10
36.96527374839889
 20
86.63098137123103
 11
30.43122078320178
 21
86.63098137123103
  0
LINE
  5
DF
100
AcDbEntity
  8
height_-0.5
  6
ByLayer
 62
  256
370
   -1
100
AcDbLine
 10
29.43122078320178
 20
87.63098137123103
 11
29.43122078320178
 21
93.51976185903592
  0
ARC
  5
E0
100
AcDbEntity
  8
height_-0.5
  6
ByLayer
 62
  256
370
   -1
100
AcDbCircle
 10
42.46899050830386
 20
93.51976185903592
 40
1
100
AcDbArc
 50
90
 51
180
  0
ARC
  5
E1
100
AcDbEntity
  8
height_-0.5
  6
ByLayer
 62
  256
370
   -1
100
AcDbCircle
 10
49.00304347350097
 20
93.51976185903592
 40
1
100
AcDbArc
 50
0
 51
90
  0
ARC
  5
E2
100
AcDbEntity
  8
height_-0.5
  6
ByLayer
 62
  256
370
   -1
100
AcDbCircle
 10
49.00304347350097
 20
87.63098137123103
 40
1
100
AcDbArc
 50
270
 51
0
  0
ARC
  5
E3
100
AcDbEntity
  8
height_-0.5
  6
ByLayer
 62
  256
370
   -1
100
AcDbCircle
 10
42.46899050830386
 20
87.63098137123103
 40
1
100
AcDbArc
 50
180
 51
270
  0
LINE
  5
E4
100
AcDbEntity
  8
height_-0.5
  6
ByLayer
 62
  256
370
   -1
100
AcDbLine
 10
42.46899050830386
 20
94.51976185903592
 11
49.00304347350097
 21
94.51976185903592
  0
LINE
  5
E5
100
AcDbEntity
  8
height_-0.5
  6
ByLayer
 62
  256
370
   -1
100
AcDbLine
 10
50.00304347350097
 20
93.51976185903592
 11
50.00304347350097
 21
87.63098137123103
  0
LINE
  5
E6
100
AcDbEntity
  8
height_-0.5
  6
ByLayer
 62
  256
370
   -1
100
AcDbLine
 10
49.00304347350097
 20
86.63098137123103
 11
42.46899050830386
 21
86.63098137123103
  0
LINE
  5
E7
100
AcDbEntity
  8
height_-0.5
  6
ByLayer
 62
  256
370
   -1
100
AcDbLine
 10
41.46899050830386
 20
87.63098137123103
 11
41.46899050830386
 21
93.51976185903592
  0
ARC
  5
E8
100
AcDbEntity
  8
height_-0.5
  6
ByLayer
 62
  256
370
   -1
100
AcDbCircle
 10
54.50676023340596
 20
93.51976185903592
 40
1
100
AcDbArc
 50
90
 51
180
  0
ARC
  5
E9
100
AcDbEntity
  8
height_-0.5
  6
ByLayer
 62
  256
370
   -1
100
AcDbCircle
 10
61.04081319860307
 20
93.51976185903592
 40
1
100
AcDbArc
 50
0
 51
90
  0
ARC
  5
EA
100
AcDbEntity
  8
height_-0.5
  6
ByLayer
 62
  256
370
   -1
100
AcDbCircle
 10
61.04081319860307
 20
87.63098137123103
 40
1
100
AcDbArc
 50
270
 51
0
  0
ARC
  5
EB
100
AcDbEntity
  8
height_-0.5
  6
ByLayer
 62
  256
370
   -1
100
AcDbCircle
 10
54.50676023340596
 20
87.63098137123103
 40
1
100
AcDbArc
 50
180
 51
270
  0
LINE
  5
EC
100
AcDbEntity
  8
height_-0.5
  6
ByLayer
 62
  256
370
   -1
100
AcDbLine
 10
54.50676023340596
 20
94.51976185903592
 11
61.04081319860307
 21
94.51976185903592
  0
LINE
  5
ED
100
AcDbEntity
  8
height_-0.5
  6
ByLayer
 62
  256
370
   -1
100
AcDbLine
 10
62.04081319860307
 20
93.51976185903592
 11
62.04081319860307
 21
87.63098137123103
  0
LINE
  5
EE
100
AcDbEntity
  8
height_-0.5
  6
ByLayer
 62
  256
370
   -1
100
AcDbLine
 10
61.04081319860307
 20
86.63098137123103
 11
54.50676023340596
 21
86.63098137123103
  0
LINE
  5
EF
100
AcDbEntity
  8
height_-0.5
  6
ByLayer
 62
  256
370
   -1
100
AcDbLine
 10
53.50676023340596
 20
87.63098137123103
 11
53.50676023340596
 21
93.51976185903592
  0
ARC
  5
F0
100
AcDbEntity
  8
height_-0.5
  6
ByLayer
 62
  256
370
   -1
100
AcDbCircle
 10
66.54452995850805
 20
93.51976185903592
 40
1
100
AcDbArc
 50
90
 51
180
  0
ARC
  5
F1
100
AcDbEntity
  8
height_-0.5
  6
ByLayer
 62
  256
370
   -1
100
AcDbCircle
 10
73.07858292370517
 20
93.51976185903592
 40
1
100
AcDbArc
 50
0
 51
90
  0
ARC
  5
F2
100
AcDbEntity
  8
height_-0.5
  6
ByLayer
 62
  256
370
   -1
100
AcDbCircle
 10
73.07858292370517
 20
87.63098137123103
 40
1
100
AcDbArc
 50
270
 51
0
  0
ARC
  5
F3
100
AcDbEntity
  8
height_-0.5
  6
ByLayer
 62
  256
370
   -1
100
AcDbCircle
 10
66.54452995850805
 20
87.63098137123103
 40
1
100
AcDbArc
 50
180
 51
270
  0
LINE
  5
F4
100
AcDbEntity
  8
height_-0.5
  6
ByLayer
 62
  256
370
   -1
100
AcDbLine
 10
66.54452995850805
 20
94.51976185903592
 11
73.07858292370517
 21
94.51976185903592
  0
LINE
  5
F5
100
AcDbEntity
  8
height_-0.5
  6
ByLayer
 62
  256
370
   -1
100
AcDbLine
 10
74.07858292370517
 20
93.51976185903592
 11
74.07858292370517
 21
87.63098137123103
  0
LINE
  5
F6
100
AcDbEntity
  8
height_-0.5
  6
ByLayer
 62
  256
370
   -1
100
AcDbLine
 10
73.07858292370517
 20
86.63098137123103
 11
66.54452995850805
 21
86.63098137123103
  0
LINE
  5
F7
100
AcDbEntity
  8
height_-0.5
  6
ByLayer
 62
  256
370
   -1
100
AcDbLine
 10
65.54452995850805
 20
87.63098137123103
 11
65.54452995850805
 21
93.51976185903592
  0
ARC
  5
F8
100
AcDbEntity
  8
height_-0.5
  6
ByLayer
 62
  256
370
   -1
100
AcDbCircle
 10
18.39345105809969
 20
81.34415210293837
 40
1
100
AcDbArc
 50
90
 51
180
  0
ARC
  5
F9
100
AcDbEntity
  8
height_-0.5
  6
ByLayer
 62
  256
370
   -1
100
AcDbCircle
 10
24.92750402329681
 20
81.34415210293837
 40
1
100
AcDbArc
 50
0
 51
90
  0
ARC
  5
FA
100
AcDbEntity
  8
height_-0.5
  6
ByLayer
 62
  256
370
   -1
100
AcDbCircle
 10
24.92750402329681
 20
75.45537161513347
 40
1
100
AcDbArc
 50
270
 51
0
  0
ARC
  5
FB
100
AcDbEntity
  8
height_-0.5
  6
ByLayer
 62
  256
370
   -1
100
AcDbCircle
 10
18.39345105809969
 20
75.45537161513347
 40
1
100
AcDbArc
 50
180
 51
270
  0
LINE
  5
FC
100
AcDbEntity
  8
height_-0.5
  6
ByLayer
 62
  256
370
   -1
100
AcDbLine
 10
18.39345105809969
 20
82.34415210293837
 11
24.92750402329681
 21
82.34415210293837
  0
LINE
  5
FD
100
AcDbEntity
  8
height_-0.5
  6
ByLayer
 62
  256
370
   -1
100
AcDbLine
 10
25.92750402329681
 20
81.34415210293837
 11
25.92750402329681
 21
75.45537161513347
  0
LINE
  5
FE
100
AcDbEntity
  8
height_-0.5
  6
ByLayer
 62
  256
370
   -1
100
AcDbLine
 10
24.92750402329681
 20
74.45537161513347
 11
18.39345105809969
 21
74.45537161513347
  0
LINE
  5
FF
100
AcDbEntity
  8
height_-0.5
  6
ByLayer
 62
  256
370
   -1
100
AcDbLine
 10
17.39345105809969
 20
75.45537161513347
 11
17.39345105809969
 21
81.34415210293837
  0
ARC
  5
100
100
AcDbEntity
  8
height_-0.5
  6
ByLayer
 62
  256
370
   -1
100
AcDbCircle
 10
30.43122078320178
 20
81.34415210293837
 40
1
100
AcDbArc
 50
90
 51
180
  0
ARC
  5
101
100
AcDbEntity
  8
height_-0.5
  6
ByLayer
 62
  256
370
   -1
100
AcDbCircle
 10
36.96527374839889
 20
81.34415210293837
 40
1
100
AcDbArc
 50
0
 51
90
  0
ARC
  5
102
100
AcDbEntity
  8
height_-0.5
  6
ByLayer
 62
  256
370
   -1
100
AcDbCircle
 10
36.96527374839889
 20
75.45537161513347
 40
1
100
AcDbArc
 50
270
 51
0
  0
ARC
  5
103
100
AcDbEntity
  8
height_-0.5
  6
ByLayer
 62
  256
370
   -1
100
AcDbCircle
 10
30.43122078320178
 20
75.45537161513347
 40
1
100
AcDbArc
 50
180
 51
270
  0
LINE
  5
104
100
AcDbEntity
  8
height_-0.5
  6
ByLayer
 62
  256
370
   -1
100
AcDbLine
 10
30.43122078320178
 20
82.34415210293837
 11
36.96527374839889
 21
82.34415210293837
  0
LINE
  5
105
100
AcDbEntity
  8
height_-0.5
  6
ByLayer
 62
  256
370
   -1
100
AcDbLine
 10
37.96527374839889
 20
81.34415210293837
 11
37.96527374839889
 21
75.45537161513347
  0
LINE
  5
106
100
AcDbEntity
  8
height_-0.5
  6
ByLayer
 62
  256
370
   -1
100
AcDbLine
 10
29.43122078320178
 20
75.45537161513347
 11
29.43122078320178
 21
81.34415210293837
  0
ARC
  5
107
100
AcDbEntity
  8
height_-0.5
  6
ByLayer
 62
  256
370
   -1
100
AcDbCircle
 10
42.46899050830386
 20
81.34415210293837
 40
1
100
AcDbArc
 50
90
 51
180
  0
ARC
  5
108
100
AcDbEntity
  8
height_-0.5
  6
ByLayer
 62
  256
370
   -1
100
AcDbCircle
 10
49.00304347350097
 20
81.34415210293837
 40
1
100
AcDbArc
 50
0
 51
90
  0
ARC
  5
109
100
AcDbEntity
  8
height_-0.5
  6
ByLayer
 62
  256
370
   -1
100
AcDbCircle
 10
49.00304347350097
 20
75.45537161513347
 40
1
100
AcDbArc
 50
270
 51
0
  0
ARC
  5
10A
100
AcDbEntity
  8
height_-0.5
  6
ByLayer
 62
  256
370
   -1
100
AcDbCircle
 10
42.46899050830386
 20
75.45537161513347
 40
1
100
AcDbArc
 50
180
 51
270
  0
LINE
  5
10B
100
AcDbEntity
  8
height_-0.5
  6
ByLayer
 62
  256
370
   -1
100
AcDbLine
 10
42.46899050830386
 20
82.34415210293837
 11
49.00304347350097
 21
82.34415210293837
  0
LINE
  5
10C
100
AcDbEntity
  8
height_-0.5
  6
ByLayer
 62
  256
370
   -1
100
AcDbLine
 10
50.00304347350097
 20
81.34415210293837
 11
50.00304347350097
 21
75.45537161513347
  0
LINE
  5
10D
100
AcDbEntity
  8
height_-0.5
  6
ByLayer
 62
  256
370
   -1
100
AcDbLine
 10
41.46899050830386
 20
75.45537161513347
 11
41.46899050830386
 21
81.34415210293837
  0
ARC
  5
10E
100
AcDbEntity
  8
height_-0.5
  6
ByLayer
 62
  256
370
   -1
100
AcDbCircle
 10
54.50676023340596
 20
81.34415210293837
 40
1
100
AcDbArc
 50
90
 51
180
  0
ARC
  5
10F
100
AcDbEntity
  8
height_-0.5
  6
ByLayer
 62
  256
370
   -1
100
AcDbCircle
 10
61.04081319860307
 20
81.34415210293837
 40
1
100
AcDbArc
 50
0
 51
90
  0
ARC
  5
110
100
AcDbEntity
  8
height_-0.5
  6
ByLayer
 62
  256
370
   -1
100
AcDbCircle
 10
61.04081319860307
 20
75.45537161513347
 40
1
100
AcDbArc
 50
270
 51
0
  0
ARC
  5
111
100
AcDbEntity
  8
height_-0.5
  6
ByLayer
 62
  256
370
   -1
100
AcDbCircle
 10
54.50676023340596
 20
75.45537161513347
 40
1
100
AcDbArc
 50
180
 51
270
  0
LINE
  5
112
100
AcDbEntity
  8
height_-0.5
  6
ByLayer
 62
  256
370
   -1
100
AcDbLine
 10
54.50676023340596
 20
82.34415210293837
 11
61.04081319860307
 21
82.34415210293837
  0
LINE
  5
113
100
AcDbEntity
  8
height_-0.5
  6
ByLayer
 62
  256
370
   -1
100
AcDbLine
 10
62.04081319860307
 20
81.34415210293837
 11
62.04081319860307
 21
75.45537161513347
  0
LINE
  5
114
100
AcDbEntity
  8
height_-0.5
  6
ByLayer
 62
  256
370
   -1
100
AcDbLine
 10
53.50676023340596
 20
75.45537161513347
 11
53.50676023340596
 21
81.34415210293837
  0
ARC
  5
115
100
AcDbEntity
  8
height_-0.5
  6
ByLayer
 62
  256
370
   -1
100
AcDbCircle
 10
66.54452995850805
 20
81.34415210293837
 40
1
100
AcDbArc
 50
90
 51
180
  0
ARC
  5
116
100
AcDbEntity
  8
height_-0.5
  6
ByLayer
 62
  256
370
   -1
100
AcDbCircle
 10
73.07858292370517
 20
81.34415210293837
 40
1
100
AcDbArc
 50
0
 51
90
  0
ARC
  5
117
100
AcDbEntity
  8
height_-0.5
  6
ByLayer
 62
  256
370
   -1
100
AcDbCircle
 10
73.07858292370517
 20
75.45537161513347
 40
1
100
AcDbArc
 50
270
 51
0
  0
ARC
  5
118
100
AcDbEntity
  8
height_-0.5
  6
ByLayer
 62
  256
370
   -1
100
AcDbCircle
 10
66.54452995850805
 20
75.45537161513347
 40
1
100
AcDbArc
 50
180
 51
270
  0
LINE
  5
119
100
AcDbEntity
  8
height_-0.5
  6
ByLayer
 62
  256
370
   -1
100
AcDbLine
 10
66.54452995850805
 20
82.34415210293837
 11
73.07858292370517
 21
82.34415210293837
  0
LINE
  5
11A
100
AcDbEntity
  8
height_-0.5
  6
ByLayer
 62
  256
370
   -1
100
AcDbLine
 10
65.54452995850805
 20
75.45537161513347
 11
65.54452995850805
 21
81.34415210293837
  0
ARC
  5
11B
100
AcDbEntity
  8
height_-0.5
  6
ByLayer
 62
  256
370
   -1
100
AcDbCircle
 10
42.46899050830386
 20
69.16854234684079
 40
1
100
AcDbArc
 50
90
 51
180
  0
ARC
  5
11C
100
AcDbEntity
  8
height_-0.5
  6
ByLayer
 62
  256
370
   -1
100
AcDbCircle
 10
49.00304347350097
 20
69.16854234684079
 40
1
100
AcDbArc
 50
0
 51
90
  0
ARC
  5
11D
100
AcDbEntity
  8
height_-0.5
  6
ByLayer
 62
  256
370
   -1
100
AcDbCircle
 10
49.00304347350097
 20
63.2797618590359
 40
1
100
AcDbArc
 50
270
 51
0
  0
ARC
  5
11E
100
AcDbEntity
  8
height_-0.5
  6
ByLayer
 62
  256
370
   -1
100
AcDbCircle
 10
42.46899050830386
 20
63.2797618590359
 40
1
100
AcDbArc
 50
180
 51
270
  0
LINE
  5
11F
100
AcDbEntity
  8
height_-0.5
  6
ByLayer
 62
  256
370
   -1
100
AcDbLine
 10
42.46899050830386
 20
70.16854234684079
 11
49.00304347350097
 21
70.16854234684079
  0
LINE
  5
120
100
AcDbEntity
  8
height_-0.5
  6
ByLayer
 62
  256
370
   -1
100
AcDbLine
 10
50.00304347350097
 20
69.16854234684079
 11
50.00304347350097
 21
63.2797618590359
  0
LINE
  5
121
100
AcDbEntity
  8
height_-0.5
  6
ByLayer
 62
  256
370
   -1
100
AcDbLine
 10
49.00304347350097
 20
62.2797618590359
 11
42.46899050830386
 21
62.2797618590359
  0
LINE
  5
122
100
AcDbEntity
  8
height_-0.5
  6
ByLayer
 62
  256
370
   -1
100
AcDbLine
 10
41.46899050830386
 20
63.2797618590359
 11
41.46899050830386
 21
69.16854234684079
  0
ARC
  5
123
100
AcDbEntity
  8
height_-0.5
  6
ByLayer
 62
  256
370
   -1
100
AcDbCircle
 10
54.50676023340596
 20
69.16854234684079
 40
1
100
AcDbArc
 50
90
 51
180
  0
ARC
  5
124
100
AcDbEntity
  8
height_-0.5
  6
ByLayer
 62
  256
370
   -1
100
AcDbCircle
 10
61.04081319860307
 20
69.16854234684079
 40
1
100
AcDbArc
 50
0
 51
90
  0
ARC
  5
125
100
AcDbEntity
  8
height_-0.5
  6
ByLayer
 62
  256
370
   -1
100
AcDbCircle
 10
61.04081319860307
 20
63.2797618590359
 40
1
100
AcDbArc
 50
270
 51
0
  0
ARC
  5
126
100
AcDbEntity
  8
height_-0.5
  6
ByLayer
 62
  256
370
   -1
100
AcDbCircle
 10
54.50676023340596
 20
63.2797618590359
 40
1
100
AcDbArc
 50
180
 51
270
  0
LINE
  5
127
100
AcDbEntity
  8
height_-0.5
  6
ByLayer
 62
  256
370
   -1
100
AcDbLine
 10
54.50676023340596
 20
70.16854234684079
 11
61.04081319860307
 21
70.16854234684079
  0
LINE
  5
128
100
AcDbEntity
  8
height_-0.5
  6
ByLayer
 62
  256
370
   -1
100
AcDbLine
 10
62.04081319860307
 20
69.16854234684079
 11
62.04081319860307
 21
63.2797618590359
  0
LINE
  5
129
100
AcDbEntity
  8
height_-0.5
  6
ByLayer
 62
  256
370
   -1
100
AcDbLine
 10
61.04081319860307
 20
62.2797618590359
 11
54.50676023340596
 21
62.2797618590359
  0
LINE
  5
12A
100
AcDbEntity
  8
height_-0.5
  6
ByLayer
 62
  256
370
   -1
100
AcDbLine
 10
53.50676023340596
 20
63.2797618590359
 11
53.50676023340596
 21
69.16854234684079
  0
ARC
  5
12B
100
AcDbEntity
  8
height_-0.5
  6
ByLayer
 62
  256
370
   -1
100
AcDbCircle
 10
66.54452995850805
 20
69.16854234684079
 40
1
100
AcDbArc
 50
90
 51
180
  0
ARC
  5
12C
100
AcDbEntity
  8
height_-0.5
  6
ByLayer
 62
  256
370
   -1
100
AcDbCircle
 10
73.07858292370517
 20
69.16854234684079
 40
1
100
AcDbArc
 50
0
 51
90
  0
ARC
  5
12D
100
AcDbEntity
  8
height_-0.5
  6
ByLayer
 62
  256
370
   -1
100
AcDbCircle
 10
73.07858292370517
 20
63.2797618590359
 40
1
100
AcDbArc
 50
270
 51
0
  0
ARC
  5
12E
100
AcDbEntity
  8
height_-0.5
  6
ByLayer
 62
  256
370
   -1
100
AcDbCircle
 10
66.54452995850805
 20
63.2797618590359
 40
1
100
AcDbArc
 50
180
 51
270
  0
LINE
  5
12F
100
AcDbEntity
  8
height_-0.5
  6
ByLayer
 62
  256
370
   -1
100
AcDbLine
 10
66.54452995850805
 20
70.16854234684079
 11
73.07858292370517
 21
70.16854234684079
  0
LINE
  5
130
100
AcDbEntity
  8
height_-0.5
  6
ByLayer
 62
  256
370
   -1
100
AcDbLine
 10
74.07858292370517
 20
69.16854234684079
 11
74.07858292370517
 21
63.2797618590359
  0
LINE
  5
131
100
AcDbEntity
  8
height_-0.5
  6
ByLayer
 62
  256
370
   -1
100
AcDbLine
 10
73.07858292370517
 20
62.2797618590359
 11
66.54452995850805
 21
62.2797618590359
  0
LINE
  5
132
100
AcDbEntity
  8
height_-0.5
  6
ByLayer
 62
  256
370
   -1
100
AcDbLine
 10
65.54452995850805
 20
63.2797618590359
 11
65.54452995850805
 21
69.16854234684079
  0
LINE
  5
133
100
AcDbEntity
  8
height_-0.5
  6
ByLayer
 62
  256
370
   -1
100
AcDbLine
 10
30.43122078320178
 20
74.45537161513347
 11
36.96527374839889
 21
74.45537161513347
  0
LINE
  5
134
100
AcDbEntity
  8
height_-0.5
  6
ByLayer
 62
  256
370
   -1
100
AcDbLine
 10
42.46899050830386
 20
74.45537161513347
 11
49.00304347350097
 21
74.45537161513347
  0
LINE
  5
135
100
AcDbEntity
  8
height_-0.5
  6
ByLayer
 62
  256
370
   -1
100
AcDbLine
 10
54.50676023340596
 20
74.45537161513347
 11
61.04081319860307
 21
74.45537161513347
  0
LINE
  5
136
100
AcDbEntity
  8
height_-0.5
  6
ByLayer
 62
  256
370
   -1
100
AcDbLine
 10
66.54452995850805
 20
74.45537161513347
 11
73.07858292370517
 21
74.45537161513347
  0
LINE
  5
137
100
AcDbEntity
  8
height_-0.5
  6
ByLayer
 62
  256
370
   -1
100
AcDbLine
 10
74.07858292370517
 20
75.45537161513347
 11
74.07858292370517
 21
81.34415210293837
  0
ARC
  5
138
100
AcDbEntity
  8
height_-0.5
  6
ByLayer
 62
  256
370
   -1
100
AcDbCircle
 10
18.39345105809969
 20
69.16854234684079
 40
1
100
AcDbArc
 50
90
 51
180
  0
ARC
  5
139
100
AcDbEntity
  8
height_-0.5
  6
ByLayer
 62
  256
370
   -1
100
AcDbCircle
 10
18.39345105809969
 20
63.27976185903591
 40
1
100
AcDbArc
 50
180
 51
270
  0
ARC
  5
13A
100
AcDbEntity
  8
height_-0.5
  6
ByLayer
 62
  256
370
   -1
100
AcDbCircle
 10
36.96527374839889
 20
63.27976185903591
 40
1
100
AcDbArc
 50
270
 51
0
  0
ARC
  5
13B
100
AcDbEntity
  8
height_-0.5
  6
ByLayer
 62
  256
370
   -1
100
AcDbCircle
 10
36.96527374839889
 20
69.16854234684079
 40
1
100
AcDbArc
 50
0
 51
90
  0
LINE
  5
13C
100
AcDbEntity
  8
height_-0.5
  6
ByLayer
 62
  256
370
   -1
100
AcDbLine
 10
18.39345105809969
 20
70.16854234684079
 11
36.96527374839889
 21
70.16854234684079
  0
LINE
  5
13D
100
AcDbEntity
  8
height_-0.5
  6
ByLayer
 62
  256
370
   -1
100
AcDbLine
 10
37.96527374839889
 20
69.16854234684079
 11
37.96527374839889
 21
63.27976185903591
  0
LINE
  5
13E
100
AcDbEntity
  8
height_-0.5
  6
ByLayer
 62
  256
370
   -1
100
AcDbLine
 10
36.96527374839889
 20
62.27976185903591
 11
18.39345105809969
 21
62.27976185903591
  0
LINE
  5
13F
100
AcDbEntity
  8
height_-0.5
  6
ByLayer
 62
  256
370
   -1
100
AcDbLine
 10
17.39345105809969
 20
63.27976185903591
 11
17.39345105809969
 21
69.16854234684079
  0
ARC
  5
140
100
AcDbEntity
  8
height_-0.5
  6
ByLayer
 62
  256
370
   -1
100
AcDbCircle
 10
18.39345105809969
 20
56.99293259074324
 40
1
100
AcDbArc
 50
90
 51
180
  0
ARC
  5
141
100
AcDbEntity
  8
height_-0.5
  6
ByLayer
 62
  256
370
   -1
100
AcDbCircle
 10
18.39345105809969
 20
51.10415210293836
 40
1
100
AcDbArc
 50
180
 51
270
  0
ARC
  5
142
100
AcDbEntity
  8
height_-0.5
  6
ByLayer
 62
  256
370
   -1
100
AcDbCircle
 10
24.9275040232968
 20
56.99293259074324
 40
1
100
AcDbArc
 50
0
 51
90
  0
ARC
  5
143
100
AcDbEntity
  8
height_-0.5
  6
ByLayer
 62
  256
370
   -1
100
AcDbCircle
 10
24.9275040232968
 20
51.10415210293836
 40
1
100
AcDbArc
 50
270
 51
0
  0
LINE
  5
144
100
AcDbEntity
  8
height_-0.5
  6
ByLayer
 62
  256
370
   -1
100
AcDbLine
 10
17.39345105809969
 20
56.99293259074324
 11
17.39345105809969
 21
51.10415210293836
  0
LINE
  5
145
100
AcDbEntity
  8
height_-0.5
  6
ByLayer
 62
  256
370
   -1
100
AcDbLine
 10
18.39345105809969
 20
50.10415210293836
 11
24.9275040232968
 21
50.10415210293836
  0
LINE
  5
146
100
AcDbEntity
  8
height_-0.5
  6
ByLayer
 62
  256
370
   -1
100
AcDbLine
 10
25.9275040232968
 20
51.10415210293836
 11
25.9275040232968
 21
56.99293259074324
  0
LINE
  5
147
100
AcDbEntity
  8
height_-0.5
  6
ByLayer
 62
  256
370
   -1
100
AcDbLine
 10
18.39345105809969
 20
57.99293259074324
 11
24.9275040232968
 21
57.99293259074324
  0
ARC
  5
148
100
AcDbEntity
  8
height_-0.5
  6
ByLayer
 62
  256
370
   -1
100
AcDbCircle
 10
18.39345105809969
 20
44.81732283464568
 40
1
100
AcDbArc
 50
90
 51
180
  0
ARC
  5
149
100
AcDbEntity
  8
height_-0.5
  6
ByLayer
 62
  256
370
   -1
100
AcDbCircle
 10
18.39345105809969
 20
38.9285423468408
 40
1
100
AcDbArc
 50
180
 51
270
  0
ARC
  5
14A
100
AcDbEntity
  8
height_-0.5
  6
ByLayer
 62
  256
370
   -1
100
AcDbCircle
 10
24.9275040232968
 20
44.81732283464568
 40
1
100
AcDbArc
 50
0
 51
90
  0
ARC
  5
14B
100
AcDbEntity
  8
height_-0.5
  6
ByLayer
 62
  256
370
   -1
100
AcDbCircle
 10
24.9275040232968
 20
38.9285423468408
 40
1
100
AcDbArc
 50
270
 51
0
  0
LINE
  5
14C
100
AcDbEntity
  8
height_-0.5
  6
ByLayer
 62
  256
370
   -1
100
AcDbLine
 10
17.39345105809969
 20
44.81732283464568
 11
17.39345105809969
 21
38.9285423468408
  0
LINE
  5
14D
100
AcDbEntity
  8
height_-0.5
  6
ByLayer
 62
  256
370
   -1
100
AcDbLine
 10
18.39345105809969
 20
37.9285423468408
 11
24.9275040232968
 21
37.9285423468408
  0
LINE
  5
14E
100
AcDbEntity
  8
height_-0.5
  6
ByLayer
 62
  256
370
   -1
100
AcDbLine
 10
25.9275040232968
 20
38.9285423468408
 11
25.9275040232968
 21
44.81732283464568
  0
LINE
  5
14F
100
AcDbEntity
  8
height_-0.5
  6
ByLayer
 62
  256
370
   -1
100
AcDbLine
 10
18.39345105809969
 20
45.81732283464568
 11
24.9275040232968
 21
45.81732283464568
  0
ARC
  5
150
100
AcDbEntity
  8
height_-0.5
  6
ByLayer
 62
  256
370
   -1
100
AcDbCircle
 10
18.39345105809969
 20
32.64171307854811
 40
1
100
AcDbArc
 50
90
 51
180
  0
ARC
  5
151
100
AcDbEntity
  8
height_-0.5
  6
ByLayer
 62
  256
370
   -1
100
AcDbCircle
 10
18.39345105809969
 20
26.75293259074323
 40
1
100
AcDbArc
 50
180
 51
270
  0
ARC
  5
152
100
AcDbEntity
  8
height_-0.5
  6
ByLayer
 62
  256
370
   -1
100
AcDbCircle
 10
24.9275040232968
 20
32.64171307854811
 40
1
100
AcDbArc
 50
0
 51
90
  0
ARC
  5
153
100
AcDbEntity
  8
height_-0.5
  6
ByLayer
 62
  256
370
   -1
100
AcDbCircle
 10
24.9275040232968
 20
26.75293259074323
 40
1
100
AcDbArc
 50
270
 51
0
  0
LINE
  5
154
100
AcDbEntity
  8
height_-0.5
  6
ByLayer
 62
  256
370
   -1
100
AcDbLine
 10
17.39345105809969
 20
32.64171307854811
 11
17.39345105809969
 21
26.75293259074323
  0
LINE
  5
155
100
AcDbEntity
  8
height_-0.5
  6
ByLayer
 62
  256
370
   -1
100
AcDbLine
 10
18.39345105809969
 20
25.75293259074323
 11
24.9275040232968
 21
25.75293259074323
  0
LINE
  5
156
100
AcDbEntity
  8
height_-0.5
  6
ByLayer
 62
  256
370
   -1
100
AcDbLine
 10
25.9275040232968
 20
26.75293259074323
 11
25.9275040232968
 21
32.64171307854811
  0
LINE
  5
157
100
AcDbEntity
  8
height_-0.5
  6
ByLayer
 62
  256
370
   -1
100
AcDbLine
 10
18.39345105809969
 20
33.64171307854811
 11
24.9275040232968
 21
33.64171307854811
  0
ARC
  5
158
100
AcDbEntity
  8
height_-0.5
  6
ByLayer
 62
  256
370
   -1
100
AcDbCircle
 10
18.39345105809969
 20
20.46610332245055
 40
1
100
AcDbArc
 50
90
 51
180
  0
ARC
  5
159
100
AcDbEntity
  8
height_-0.5
  6
ByLayer
 62
  256
370
   -1
100
AcDbCircle
 10
18.39345105809969
 20
14.57732283464567
 40
1
100
AcDbArc
 50
180
 51
270
  0
ARC
  5
15A
100
AcDbEntity
  8
height_-0.5
  6
ByLayer
 62
  256
370
   -1
100
AcDbCircle
 10
24.9275040232968
 20
20.46610332245055
 40
1
100
AcDbArc
 50
0
 51
90
  0
ARC
  5
15B
100
AcDbEntity
  8
height_-0.5
  6
ByLayer
 62
  256
370
   -1
100
AcDbCircle
 10
24.9275040232968
 20
14.57732283464567
 40
1
100
AcDbArc
 50
270
 51
0
  0
LINE
  5
15C
100
AcDbEntity
  8
height_-0.5
  6
ByLayer
 62
  256
370
   -1
100
AcDbLine
 10
17.39345105809969
 20
20.46610332245055
 11
17.39345105809969
 21
14.57732283464567
  0
LINE
  5
15D
100
AcDbEntity
  8
height_-0.5
  6
ByLayer
 62
  256
370
   -1
100
AcDbLine
 10
18.39345105809969
 20
13.57732283464567
 11
24.9275040232968
 21
13.57732283464567
  0
LINE
  5
15E
100
AcDbEntity
  8
height_-0.5
  6
ByLayer
 62
  256
370
   -1
100
AcDbLine
 10
25.9275040232968
 20
14.57732283464567
 11
25.9275040232968
 21
20.46610332245055
  0
LINE
  5
15F
100
AcDbEntity
  8
height_-0.5
  6
ByLayer
 62
  256
370
   -1
100
AcDbLine
 10
18.39345105809969
 20
21.46610332245055
 11
24.9275040232968
 21
21.46610332245055
  0
ARC
  5
160
100
AcDbEntity
  8
height_-0.5
  6
ByLayer
 62
  256
370
   -1
100
AcDbCircle
 10
33.18414109455567
 20
56.99293259074323
 40
1
100
AcDbArc
 50
90
 51
180
  0
ARC
  5
161
100
AcDbEntity
  8
height_-0.5
  6
ByLayer
 62
  256
370
   -1
100
AcDbCircle
 10
33.18414109455567
 20
51.10415210293836
 40
1
100
AcDbArc
 50
180
 51
270
  0
ARC
  5
162
100
AcDbEntity
  8
height_-0.5
  6
ByLayer
 62
  256
370
   -1
100
AcDbCircle
 10
40.96952147400457
 20
51.10415210293836
 40
1
100
AcDbArc
 50
270
 51
0
  0
ARC
  5
163
100
AcDbEntity
  8
height_-0.5
  6
ByLayer
 62
  256
370
   -1
100
AcDbCircle
 10
40.96952147400457
 20
56.99293259074323
 40
1
100
AcDbArc
 50
0
 51
90
  0
LINE
  5
164
100
AcDbEntity
  8
height_-0.5
  6
ByLayer
 62
  256
370
   -1
100
AcDbLine
 10
32.18414109455567
 20
56.99293259074323
 11
32.18414109455567
 21
51.10415210293836
  0
LINE
  5
165
100
AcDbEntity
  8
height_-0.5
  6
ByLayer
 62
  256
370
   -1
100
AcDbLine
 10
33.18414109455567
 20
57.99293259074323
 11
40.96952147400457
 21
57.99293259074323
  0
LINE
  5
166
100
AcDbEntity
  8
height_-0.5
  6
ByLayer
 62
  256
370
   -1
100
AcDbLine
 10
41.96952147400457
 20
56.99293259074323
 11
41.96952147400457
 21
51.10415210293836
  0
LINE
  5
167
100
AcDbEntity
  8
height_-0.5
  6
ByLayer
 62
  256
370
   -1
100
AcDbLine
 10
40.96952147400457
 20
50.10415210293836
 11
33.18414109455567
 21
50.10415210293836
  0
ARC
  5
168
100
AcDbEntity
  8
height_-0.5
  6
ByLayer
 62
  256
370
   -1
100
AcDbCircle
 10
49.22615854526346
 20
56.99293259074324
 40
1
100
AcDbArc
 50
90
 51
180
  0
ARC
  5
169
100
AcDbEntity
  8
height_-0.5
  6
ByLayer
 62
  256
370
   -1
100
AcDbCircle
 10
49.22615854526346
 20
51.10415210293836
 40
1
100
AcDbArc
 50
180
 51
270
  0
ARC
  5
16A
100
AcDbEntity
  8
height_-0.5
  6
ByLayer
 62
  256
370
   -1
100
AcDbCircle
 10
57.01153892471236
 20
51.10415210293836
 40
1
100
AcDbArc
 50
270
 51
0
  0
ARC
  5
16B
100
AcDbEntity
  8
height_-0.5
  6
ByLayer
 62
  256
370
   -1
100
AcDbCircle
 10
57.01153892471236
 20
56.99293259074324
 40
1
100
AcDbArc
 50
0
 51
90
  0
LINE
  5
16C
100
AcDbEntity
  8
height_-0.5
  6
ByLayer
 62
  256
370
   -1
100
AcDbLine
 10
48.22615854526346
 20
56.99293259074324
 11
48.22615854526346
 21
51.10415210293836
  0
LINE
  5
16D
100
AcDbEntity
  8
height_-0.5
  6
ByLayer
 62
  256
370
   -1
100
AcDbLine
 10
49.22615854526346
 20
57.99293259074324
 11
57.01153892471236
 21
57.99293259074324
  0
LINE
  5
16E
100
AcDbEntity
  8
height_-0.5
  6
ByLayer
 62
  256
370
   -1
100
AcDbLine
 10
58.01153892471236
 20
56.99293259074324
 11
58.01153892471236
 21
51.10415210293836
  0
LINE
  5
16F
100
AcDbEntity
  8
height_-0.5
  6
ByLayer
 62
  256
370
   -1
100
AcDbLine
 10
57.01153892471236
 20
50.10415210293836
 11
49.22615854526346
 21
50.10415210293836
  0
ARC
  5
170
100
AcDbEntity
  8
height_-0.5
  6
ByLayer
 62
  256
370
   -1
100
AcDbCircle
 10
49.22615854526346
 20
44.81732283464568
 40
1
100
AcDbArc
 50
90
 51
180
  0
ARC
  5
171
100
AcDbEntity
  8
height_-0.5
  6
ByLayer
 62
  256
370
   -1
100
AcDbCircle
 10
49.22615854526346
 20
38.92854234684081
 40
1
100
AcDbArc
 50
180
 51
270
  0
ARC
  5
172
100
AcDbEntity
  8
height_-0.5
  6
ByLayer
 62
  256
370
   -1
100
AcDbCircle
 10
57.01153892471236
 20
38.92854234684081
 40
1
100
AcDbArc
 50
270
 51
0
  0
ARC
  5
173
100
AcDbEntity
  8
height_-0.5
  6
ByLayer
 62
  256
370
   -1
100
AcDbCircle
 10
57.01153892471236
 20
44.81732283464568
 40
1
100
AcDbArc
 50
0
 51
90
  0
LINE
  5
174
100
AcDbEntity
  8
height_-0.5
  6
ByLayer
 62
  256
370
   -1
100
AcDbLine
 10
48.22615854526346
 20
44.81732283464568
 11
48.22615854526346
 21
38.92854234684081
  0
LINE
  5
175
100
AcDbEntity
  8
height_-0.5
  6
ByLayer
 62
  256
370
   -1
100
AcDbLine
 10
49.22615854526346
 20
45.81732283464568
 11
57.01153892471236
 21
45.81732283464568
  0
LINE
  5
176
100
AcDbEntity
  8
height_-0.5
  6
ByLayer
 62
  256
370
   -1
100
AcDbLine
 10
58.01153892471236
 20
44.81732283464568
 11
58.01153892471236
 21
38.92854234684081
  0
LINE
  5
177
100
AcDbEntity
  8
height_-0.5
  6
ByLayer
 62
  256
370
   -1
100
AcDbLine
 10
57.01153892471236
 20
37.92854234684081
 11
49.22615854526346
 21
37.92854234684081
  0
ARC
  5
178
100
AcDbEntity
  8
height_-0.5
  6
ByLayer
 62
  256
370
   -1
100
AcDbCircle
 10
65.26817599597122
 20
56.99293259074324
 40
1
100
AcDbArc
 50
90
 51
180
  0
ARC
  5
179
100
AcDbEntity
  8
height_-0.5
  6
ByLayer
 62
  256
370
   -1
100
AcDbCircle
 10
65.26817599597122
 20
51.10415210293836
 40
1
100
AcDbArc
 50
180
 51
270
  0
ARC
  5
17A
100
AcDbEntity
  8
height_-0.5
  6
ByLayer
 62
  256
370
   -1
100
AcDbCircle
 10
73.05355637542013
 20
51.10415210293836
 40
1
100
AcDbArc
 50
270
 51
0
  0
ARC
  5
17B
100
AcDbEntity
  8
height_-0.5
  6
ByLayer
 62
  256
370
   -1
100
AcDbCircle
 10
73.05355637542013
 20
56.99293259074324
 40
1
100
AcDbArc
 50
0
 51
90
  0
LINE
  5
17C
100
AcDbEntity
  8
height_-0.5
  6
ByLayer
 62
  256
370
   -1
100
AcDbLine
 10
64.26817599597122
 20
56.99293259074324
 11
64.26817599597122
 21
51.10415210293836
  0
LINE
  5
17D
100
AcDbEntity
  8
height_-0.5
  6
ByLayer
 62
  256
370
   -1
100
AcDbLine
 10
65.26817599597122
 20
57.99293259074324
 11
73.05355637542013
 21
57.99293259074324
  0
LINE
  5
17E
100
AcDbEntity
  8
height_-0.5
  6
ByLayer
 62
  256
370
   -1
100
AcDbLine
 10
74.05355637542013
 20
56.99293259074324
 11
74.05355637542013
 21
51.10415210293836
  0
LINE
  5
17F
100
AcDbEntity
  8
height_-0.5
  6
ByLayer
 62
  256
370
   -1
100
AcDbLine
 10
73.05355637542013
 20
50.10415210293836
 11
65.26817599597122
 21
50.10415210293836
  0
ARC
  5
180
100
AcDbEntity
  8
height_-0.5
  6
ByLayer
 62
  256
370
   -1
100
AcDbCircle
 10
65.26817599597122
 20
44.81732283464568
 40
1
100
AcDbArc
 50
90
 51
180
  0
ARC
  5
181
100
AcDbEntity
  8
height_-0.5
  6
ByLayer
 62
  256
370
   -1
100
AcDbCircle
 10
65.26817599597122
 20
38.92854234684081
 40
1
100
AcDbArc
 50
180
 51
270
  0
ARC
  5
182
100
AcDbEntity
  8
height_-0.5
  6
ByLayer
 62
  256
370
   -1
100
AcDbCircle
 10
73.05355637542013
 20
38.92854234684081
 40
1
100
AcDbArc
 50
270
 51
0
  0
ARC
  5
183
100
AcDbEntity
  8
height_-0.5
  6
ByLayer
 62
  256
370
   -1
100
AcDbCircle
 10
73.05355637542013
 20
44.81732283464568
 40
1
100
AcDbArc
 50
0
 51
90
  0
LINE
  5
184
100
AcDbEntity
  8
height_-0.5
  6
ByLayer
 62
  256
370
   -1
100
AcDbLine
 10
64.26817599597122
 20
44.81732283464568
 11
64.26817599597122
 21
38.92854234684081
  0
LINE
  5
185
100
AcDbEntity
  8
height_-0.5
  6
ByLayer
 62
  256
370
   -1
100
AcDbLine
 10
65.26817599597122
 20
45.81732283464568
 11
73.05355637542013
 21
45.81732283464568
  0
LINE
  5
186
100
AcDbEntity
  8
height_-0.5
  6
ByLayer
 62
  256
370
   -1
100
AcDbLine
 10
74.05355637542013
 20
44.81732283464568
 11
74.05355637542013
 21
38.92854234684081
  0
LINE
  5
187
100
AcDbEntity
  8
height_-0.5
  6
ByLayer
 62
  256
370
   -1
100
AcDbLine
 10
73.05355637542013
 20
37.92854234684081
 11
65.26817599597122
 21
37.92854234684081
  0
ARC
  5
188
100
AcDbEntity
  8
height_-0.5
  6
ByLayer
 62
  256
370
   -1
100
AcDbCircle
 10
65.26817599597122
 20
32.64171307854811
 40
1
100
AcDbArc
 50
90
 51
180
  0
ARC
  5
189
100
AcDbEntity
  8
height_-0.5
  6
ByLayer
 62
  256
370
   -1
100
AcDbCircle
 10
65.26817599597122
 20
26.75293259074324
 40
1
100
AcDbArc
 50
180
 51
270
  0
ARC
  5
18A
100
AcDbEntity
  8
height_-0.5
  6
ByLayer
 62
  256
370
   -1
100
AcDbCircle
 10
73.05355637542013
 20
26.75293259074324
 40
1
100
AcDbArc
 50
270
 51
0
  0
ARC
  5
18B
100
AcDbEntity
  8
height_-0.5
  6
ByLayer
 62
  256
370
   -1
100
AcDbCircle
 10
73.05355637542013
 20
32.64171307854811
 40
1
100
AcDbArc
 50
0
 51
90
  0
LINE
  5
18C
100
AcDbEntity
  8
height_-0.5
  6
ByLayer
 62
  256
370
   -1
100
AcDbLine
 10
64.26817599597122
 20
32.64171307854811
 11
64.26817599597122
 21
26.75293259074324
  0
LINE
  5
18D
100
AcDbEntity
  8
height_-0.5
  6
ByLayer
 62
  256
370
   -1
100
AcDbLine
 10
65.26817599597122
 20
33.64171307854811
 11
73.05355637542013
 21
33.64171307854811
  0
LINE
  5
18E
100
AcDbEntity
  8
height_-0.5
  6
ByLayer
 62
  256
370
   -1
100
AcDbLine
 10
74.05355637542013
 20
32.64171307854811
 11
74.05355637542013
 21
26.75293259074324
  0
LINE
  5
18F
100
AcDbEntity
  8
height_-0.5
  6
ByLayer
 62
  256
370
   -1
100
AcDbLine
 10
73.05355637542013
 20
25.75293259074324
 11
65.26817599597122
 21
25.75293259074324
  0
ARC
  5
190
100
AcDbEntity
  8
height_-0.5
  6
ByLayer
 62
  256
370
   -1
100
AcDbCircle
 10
49.22615854526346
 20
32.64171307854811
 40
1
100
AcDbArc
 50
90
 51
180
  0
ARC
  5
191
100
AcDbEntity
  8
height_-0.5
  6
ByLayer
 62
  256
370
   -1
100
AcDbCircle
 10
49.22615854526346
 20
26.75293259074324
 40
1
100
AcDbArc
 50
180
 51
270
  0
ARC
  5
192
100
AcDbEntity
  8
height_-0.5
  6
ByLayer
 62
  256
370
   -1
100
AcDbCircle
 10
57.01153892471236
 20
26.75293259074324
 40
1
100
AcDbArc
 50
270
 51
0
  0
ARC
  5
193
100
AcDbEntity
  8
height_-0.5
  6
ByLayer
 62
  256
370
   -1
100
AcDbCircle
 10
57.01153892471236
 20
32.64171307854811
 40
1
100
AcDbArc
 50
0
 51
90
  0
LINE
  5
194
100
AcDbEntity
  8
height_-0.5
  6
ByLayer
 62
  256
370
   -1
100
AcDbLine
 10
48.22615854526346
 20
32.64171307854811
 11
48.22615854526346
 21
26.75293259074324
  0
LINE
  5
195
100
AcDbEntity
  8
height_-0.5
  6
ByLayer
 62
  256
370
   -1
100
AcDbLine
 10
49.22615854526346
 20
33.64171307854811
 11
57.01153892471236
 21
33.64171307854811
  0
LINE
  5
196
100
AcDbEntity
  8
height_-0.5
  6
ByLayer
 62
  256
370
   -1
100
AcDbLine
 10
58.01153892471236
 20
32.64171307854811
 11
58.01153892471236
 21
26.75293259074324
  0
LINE
  5
197
100
AcDbEntity
  8
height_-0.5
  6
ByLayer
 62
  256
370
   -1
100
AcDbLine
 10
57.01153892471236
 20
25.75293259074324
 11
49.22615854526346
 21
25.75293259074324
  0
ARC
  5
198
100
AcDbEntity
  8
height_-0.5
  6
ByLayer
 62
  256
370
   -1
100
AcDbCircle
 10
33.18414109455568
 20
44.81732283464568
 40
1
100
AcDbArc
 50
90
 51
180
  0
ARC
  5
199
100
AcDbEntity
  8
height_-0.5
  6
ByLayer
 62
  256
370
   -1
100
AcDbCircle
 10
33.18414109455568
 20
38.92854234684081
 40
1
100
AcDbArc
 50
180
 51
270
  0
ARC
  5
19A
100
AcDbEntity
  8
height_-0.5
  6
ByLayer
 62
  256
370
   -1
100
AcDbCircle
 10
40.96952147400458
 20
38.92854234684081
 40
1
100
AcDbArc
 50
270
 51
0
  0
ARC
  5
19B
100
AcDbEntity
  8
height_-0.5
  6
ByLayer
 62
  256
370
   -1
100
AcDbCircle
 10
40.96952147400458
 20
44.81732283464568
 40
1
100
AcDbArc
 50
0
 51
90
  0
LINE
  5
19C
100
AcDbEntity
  8
height_-0.5
  6
ByLayer
 62
  256
370
   -1
100
AcDbLine
 10
32.18414109455568
 20
44.81732283464568
 11
32.18414109455568
 21
38.92854234684081
  0
LINE
  5
19D
100
AcDbEntity
  8
height_-0.5
  6
ByLayer
 62
  256
370
   -1
100
AcDbLine
 10
33.18414109455568
 20
45.81732283464568
 11
40.96952147400458
 21
45.81732283464568
  0
LINE
  5
19E
100
AcDbEntity
  8
height_-0.5
  6
ByLayer
 62
  256
370
   -1
100
AcDbLine
 10
41.96952147400458
 20
44.81732283464568
 11
41.96952147400458
 21
38.92854234684081
  0
LINE
  5
19F
100
AcDbEntity
  8
height_-0.5
  6
ByLayer
 62
  256
370
   -1
100
AcDbLine
 10
40.96952147400458
 20
37.92854234684081
 11
33.18414109455568
 21
37.92854234684081
  0
ARC
  5
1A0
100
AcDbEntity
  8
height_-0.5
  6
ByLayer
 62
  256
370
   -1
100
AcDbCircle
 10
33.18414109455568
 20
32.64171307854811
 40
1
100
AcDbArc
 50
90
 51
180
  0
ARC
  5
1A1
100
AcDbEntity
  8
height_-0.5
  6
ByLayer
 62
  256
370
   -1
100
AcDbCircle
 10
33.18414109455568
 20
26.75293259074324
 40
1
100
AcDbArc
 50
180
 51
270
  0
ARC
  5
1A2
100
AcDbEntity
  8
height_-0.5
  6
ByLayer
 62
  256
370
   -1
100
AcDbCircle
 10
40.96952147400458
 20
26.75293259074324
 40
1
100
AcDbArc
 50
270
 51
0
  0
ARC
  5
1A3
100
AcDbEntity
  8
height_-0.5
  6
ByLayer
 62
  256
370
   -1
100
AcDbCircle
 10
40.96952147400458
 20
32.64171307854811
 40
1
100
AcDbArc
 50
0
 51
90
  0
LINE
  5
1A4
100
AcDbEntity
  8
height_-0.5
  6
ByLayer
 62
  256
370
   -1
100
AcDbLine
 10
32.18414109455568
 20
32.64171307854811
 11
32.18414109455568
 21
26.75293259074324
  0
LINE
  5
1A5
100
AcDbEntity
  8
height_-0.5
  6
ByLayer
 62
  256
370
   -1
100
AcDbLine
 10
33.18414109455568
 20
33.64171307854811
 11
40.96952147400458
 21
33.64171307854811
  0
LINE
  5
1A6
100
AcDbEntity
  8
height_-0.5
  6
ByLayer
 62
  256
370
   -1
100
AcDbLine
 10
41.96952147400458
 20
32.64171307854811
 11
41.96952147400458
 21
26.75293259074324
  0
LINE
  5
1A7
100
AcDbEntity
  8
height_-0.5
  6
ByLayer
 62
  256
370
   -1
100
AcDbLine
 10
40.96952147400458
 20
25.75293259074324
 11
33.18414109455568
 21
25.75293259074324
  0
ARC
  5
1A8
100
AcDbEntity
  8
height_-0.5
  6
ByLayer
 62
  256
370
   -1
100
AcDbCircle
 10
33.18414109455568
 20
20.46610332245055
 40
1
100
AcDbArc
 50
90
 51
180
  0
ARC
  5
1A9
100
AcDbEntity
  8
height_-0.5
  6
ByLayer
 62
  256
370
   -1
100
AcDbCircle
 10
33.18414109455568
 20
14.57732283464568
 40
1
100
AcDbArc
 50
180
 51
270
  0
ARC
  5
1AA
100
AcDbEntity
  8
height_-0.5
  6
ByLayer
 62
  256
370
   -1
100
AcDbCircle
 10
40.96952147400458
 20
14.57732283464568
 40
1
100
AcDbArc
 50
270
 51
0
  0
ARC
  5
1AB
100
AcDbEntity
  8
height_-0.5
  6
ByLayer
 62
  256
370
   -1
100
AcDbCircle
 10
40.96952147400458
 20
20.46610332245055
 40
1
100
AcDbArc
 50
0
 51
90
  0
LINE
  5
1AC
100
AcDbEntity
  8
height_-0.5
  6
ByLayer
 62
  256
370
   -1
100
AcDbLine
 10
32.18414109455568
 20
20.46610332245055
 11
32.18414109455568
 21
14.57732283464568
  0
LINE
  5
1AD
100
AcDbEntity
  8
height_-0.5
  6
ByLayer
 62
  256
370
   -1
100
AcDbLine
 10
33.18414109455568
 20
21.46610332245055
 11
40.96952147400458
 21
21.46610332245055
  0
LINE
  5
1AE
100
AcDbEntity
  8
height_-0.5
  6
ByLayer
 62
  256
370
   -1
100
AcDbLine
 10
41.96952147400458
 20
20.46610332245055
 11
41.96952147400458
 21
14.57732283464568
  0
LINE
  5
1AF
100
AcDbEntity
  8
height_-0.5
  6
ByLayer
 62
  256
370
   -1
100
AcDbLine
 10
40.96952147400458
 20
13.57732283464568
 11
33.18414109455568
 21
13.57732283464568
  0
ARC
  5
1B0
100
AcDbEntity
  8
height_-0.5
  6
ByLayer
 62
  256
370
   -1
100
AcDbCircle
 10
49.22615854526346
 20
20.46610332245055
 40
1
100
AcDbArc
 50
90
 51
180
  0
ARC
  5
1B1
100
AcDbEntity
  8
height_-0.5
  6
ByLayer
 62
  256
370
   -1
100
AcDbCircle
 10
49.22615854526346
 20
14.57732283464568
 40
1
100
AcDbArc
 50
180
 51
270
  0
ARC
  5
1B2
100
AcDbEntity
  8
height_-0.5
  6
ByLayer
 62
  256
370
   -1
100
AcDbCircle
 10
57.01153892471236
 20
14.57732283464568
 40
1
100
AcDbArc
 50
270
 51
0
  0
ARC
  5
1B3
100
AcDbEntity
  8
height_-0.5
  6
ByLayer
 62
  256
370
   -1
100
AcDbCircle
 10
57.01153892471236
 20
20.46610332245055
 40
1
100
AcDbArc
 50
0
 51
90
  0
LINE
  5
1B4
100
AcDbEntity
  8
height_-0.5
  6
ByLayer
 62
  256
370
   -1
100
AcDbLine
 10
48.22615854526346
 20
20.46610332245055
 11
48.22615854526346
 21
14.57732283464568
  0
LINE
  5
1B5
100
AcDbEntity
  8
height_-0.5
  6
ByLayer
 62
  256
370
   -1
100
AcDbLine
 10
49.22615854526346
 20
21.46610332245055
 11
57.01153892471236
 21
21.46610332245055
  0
LINE
  5
1B6
100
AcDbEntity
  8
height_-0.5
  6
ByLayer
 62
  256
370
   -1
100
AcDbLine
 10
58.01153892471236
 20
20.46610332245055
 11
58.01153892471236
 21
14.57732283464568
  0
LINE
  5
1B7
100
AcDbEntity
  8
height_-0.5
  6
ByLayer
 62
  256
370
   -1
100
AcDbLine
 10
57.01153892471236
 20
13.57732283464568
 11
49.22615854526346
 21
13.57732283464568
  0
ARC
  5
1B8
100
AcDbEntity
  8
height_-0.5
  6
ByLayer
 62
  256
370
   -1
100
AcDbCircle
 10
65.26817599597122
 20
20.46610332245055
 40
1
100
AcDbArc
 50
90
 51
180
  0
ARC
  5
1B9
100
AcDbEntity
  8
height_-0.5
  6
ByLayer
 62
  256
370
   -1
100
AcDbCircle
 10
65.26817599597122
 20
14.57732283464568
 40
1
100
AcDbArc
 50
180
 51
270
  0
ARC
  5
1BA
100
AcDbEntity
  8
height_-0.5
  6
ByLayer
 62
  256
370
   -1
100
AcDbCircle
 10
73.05355637542013
 20
14.57732283464568
 40
1
100
AcDbArc
 50
270
 51
0
  0
ARC
  5
1BB
100
AcDbEntity
  8
height_-0.5
  6
ByLayer
 62
  256
370
   -1
100
AcDbCircle
 10
73.05355637542013
 20
20.46610332245055
 40
1
100
AcDbArc
 50
0
 51
90
  0
LINE
  5
1BC
100
AcDbEntity
  8
height_-0.5
  6
ByLayer
 62
  256
370
   -1
100
AcDbLine
 10
64.26817599597122
 20
20.46610332245055
 11
64.26817599597122
 21
14.57732283464568
  0
LINE
  5
1BD
100
AcDbEntity
  8
height_-0.5
  6
ByLayer
 62
  256
370
   -1
100
AcDbLine
 10
65.26817599597122
 20
21.46610332245055
 11
73.05355637542013
 21
21.46610332245055
  0
LINE
  5
1BE
100
AcDbEntity
  8
height_-0.5
  6
ByLayer
 62
  256
370
   -1
100
AcDbLine
 10
74.05355637542013
 20
20.46610332245055
 11
74.05355637542013
 21
14.57732283464568
  0
LINE
  5
1BF
100
AcDbEntity
  8
height_-0.5
  6
ByLayer
 62
  256
370
   -1
100
AcDbLine
 10
73.05355637542013
 20
13.57732283464568
 11
65.26817599597122
 21
13.57732283464568
  0
ENDSEC
  0
SECTION
  2
OBJECTS
  0
DICTIONARY
  5
C
330
0
100
AcDbDictionary
281
    1
  3
ACAD_GROUP
350
D
  0
DICTIONARY
  5
D
330
C
100
AcDbDictionary
281
    1
  0
ENDSEC
  0
EOF
